<svg xmlns="http://www.w3.org/2000/svg" viewBox="0 0 570 570"><defs><style>.cls-1{fill:#004751;}.cls-2{fill:#ff9366;}</style></defs><g id="On_Light" data-name="On Light"><path class="cls-1" d="M233.36,191.71v0a4.07,4.07,0,0,0,0,.49,3.89,3.89,0,0,0,0,.47v0c0,.09,0,.18.08.28a4.44,4.44,0,0,0,.19.62c0,.1.1.2.15.3s.18.36.28.52.14.19.2.28.24.3.37.44a3.07,3.07,0,0,0,.26.25,4.87,4.87,0,0,0,.42.35l.31.21a5.42,5.42,0,0,0,.48.26l.33.15a4,4,0,0,0,.59.18l.29.08a4.92,4.92,0,0,0,.94.1,5.39,5.39,0,0,0,1-.09,70,70,0,0,1,19.16-1h.2l.2,0a2.85,2.85,0,0,0,.29,0,4.93,4.93,0,0,0,.54-.05l.43-.1a3.13,3.13,0,0,0,.52-.16l.39-.17a4.31,4.31,0,0,0,.47-.26c.12-.07.23-.16.35-.24s.28-.22.41-.34l.3-.31.33-.4a3,3,0,0,0,.24-.38,3.75,3.75,0,0,0,.24-.44,3,3,0,0,0,.18-.45,3.53,3.53,0,0,0,.15-.46,4.54,4.54,0,0,0,.09-.51,2.68,2.68,0,0,0,.05-.3,1.34,1.34,0,0,0,0-.2c0-.07,0-.13,0-.2V139.76a5,5,0,0,0-10,0v45.62a80.06,80.06,0,0,0-10.52.54V158a5,5,0,0,0-10,0v33.71Z"/><path class="cls-1" d="M238.23,320a5,5,0,1,0,0,10,43.77,43.77,0,0,0,35.56-18.29,45.12,45.12,0,0,0,26.46,27.75,23.88,23.88,0,0,1-23.76,21.86,5,5,0,0,0,0,10A33.88,33.88,0,0,0,310,342a44.74,44.74,0,0,0,6.37.46,34.94,34.94,0,0,1,34.9,34.9,5,5,0,0,0,10,0,45,45,0,0,0-44.9-44.9,34.94,34.94,0,0,1-34.9-34.9,5,5,0,0,0-.48-2.11,43.31,43.31,0,0,0,1-9.24V252.6a33.81,33.81,0,0,1,33.78-33.77h70.75a5,5,0,0,0,0-10h-65a4.86,4.86,0,0,0-1.69-2,154.58,154.58,0,0,0-35.26-17.21V157.88a5,5,0,0,0-10,0v35.48a5,5,0,0,0,3.61,4.8A138.8,138.8,0,0,1,305.76,210,43.83,43.83,0,0,0,272,252.6v5.75a43.68,43.68,0,0,0-33.77-16H187.81a67.59,67.59,0,0,1,24-33.6c.09-.06.15-.15.24-.22a4.48,4.48,0,0,0,.4-.36,3.47,3.47,0,0,0,.3-.37c.1-.13.2-.26.29-.4a3.42,3.42,0,0,0,.23-.42c.07-.15.15-.29.21-.44s.1-.31.14-.47a3.43,3.43,0,0,0,.11-.46,3.31,3.31,0,0,0,.06-.54c0-.11,0-.22,0-.33V157.88a5,5,0,0,0-10,0v44.46a81,81,0,0,0-6.56,5.85A77.74,77.74,0,0,0,176.46,246a5.49,5.49,0,0,0-.17.7,80.17,80.17,0,0,0-1.58,23.56c1.43,17.77,6,41.93,29,71.24.05.07.11.13.16.19v63.48a5,5,0,0,0,10,0v-65.2a5,5,0,0,0-1.74-3.77,4.64,4.64,0,0,0-.55-.86c-21.3-27.22-25.54-49.51-26.86-65.88a69.89,69.89,0,0,1,.72-17h52.83a33.78,33.78,0,0,1,0,67.55Z"/><path class="cls-1" d="M317.52,245.67h69a5,5,0,0,0,0-10h-69A18.56,18.56,0,0,0,299,254.21v37.71a5,5,0,1,0,10,0V271.67a33.82,33.82,0,0,1,28.77,33.4,5,5,0,0,0,10,0A43.83,43.83,0,0,0,309,261.59v-7.38A8.54,8.54,0,0,1,317.52,245.67Z"/><path class="cls-1" d="M393.87,329.36c-4.08-27.56-11.41-50.27-22.41-69.41a5,5,0,0,0-8.67,5c10.37,18,17.3,39.59,21.18,65.9a62.23,62.23,0,0,1-81.62,68c-22.1-7.48-41.69-17.81-58.22-30.69a32.61,32.61,0,0,0-5.13-2.07,5,5,0,0,0-5,5v34.07a5,5,0,0,0,10,0V380.49a210.44,210.44,0,0,0,55.15,27.79,72.88,72.88,0,0,0,23.42,3.88,72.29,72.29,0,0,0,71.3-82.8Z"/><path class="cls-2" d="M285,45a240.06,240.06,0,0,1,93.42,461.14A240.06,240.06,0,0,1,191.58,63.86,238.42,238.42,0,0,1,285,45m0-10C146.93,35,35,146.93,35,285S146.93,535,285,535,535,423.07,535,285,423.07,35,285,35Z"/></g></svg>