<svg xmlns="http://www.w3.org/2000/svg" viewBox="0 0 570 570"><defs><style>.cls-1{fill:#ff9366;}.cls-2{fill:#004751;}</style></defs><g id="On_Light" data-name="On Light"><path class="cls-1" d="M285,45a240.06,240.06,0,0,1,93.42,461.14A240.06,240.06,0,0,1,191.58,63.86,238.42,238.42,0,0,1,285,45m0-10C146.93,35,35,146.93,35,285S146.93,535,285,535,535,423.07,535,285,423.07,35,285,35Z"/><path class="cls-2" d="M189.49,185.64a10.57,10.57,0,1,0-10.57,10.57A10.56,10.56,0,0,0,189.49,185.64Z"/><path class="cls-2" d="M146.6,218.46a5,5,0,0,0,1.85,6.83,111.94,111.94,0,0,0,110.94,0,5,5,0,0,0-5-8.68,101.92,101.92,0,0,1-101,0A5,5,0,0,0,146.6,218.46Z"/><path class="cls-2" d="M257.16,439.71a374.62,374.62,0,0,1-46.27-39.55,325.21,325.21,0,0,0,25.07-30c31.83-43.3,48-89.35,48-136.89,0-49.43-21.16-81.54-38.91-99.77-19.26-19.77-38.38-27.76-39.19-28.1a5,5,0,0,0-3.8,0c-.8.34-19.93,8.33-39.18,28.1-17.75,18.23-38.92,50.34-38.92,99.77,0,53.52,20.3,104.87,60.32,152.6a5,5,0,0,0,7.66-6.42c-38.47-45.89-58-95.07-58-146.18,0-36.82,12-67.94,35.79-92.49a126,126,0,0,1,34.21-25.25,125.82,125.82,0,0,1,34.22,25.25c23.74,24.55,35.78,55.67,35.78,92.49,0,45.36-15.48,89.42-46,131-25.61,34.85-56.4,60.49-77.71,75.87a5,5,0,0,0,5.85,8.11,389.43,389.43,0,0,0,47.89-40.83,385.8,385.8,0,0,0,47.36,40.47,5,5,0,0,0,5.86-8.11Z"/><path class="cls-2" d="M178.92,336.05h0a106.49,106.49,0,0,0,33-6.11c22.58-8.34,34.51-23.88,34.51-44.94a5,5,0,0,0-10,0c0,16.67-9.34,28.61-27.76,35.48a96.14,96.14,0,0,1-24.74,5.3V285a20,20,0,0,1,20-20,5,5,0,0,0,0-10,30,30,0,0,0-30,30v46.05a5,5,0,0,0,5,5Z"/><path class="cls-2" d="M413.53,335.83a99.69,99.69,0,0,0,9.71-34.78H444a19.82,19.82,0,0,0,19.8-19.8,5,5,0,0,0-10,0,9.82,9.82,0,0,1-9.8,9.8H343.44a79.81,79.81,0,0,0-56.37,23.27,4.74,4.74,0,0,0-.49.4,5.17,5.17,0,0,0-.48.59A80.05,80.05,0,0,0,387.23,438.18a5,5,0,1,0-5.48-8.36,69.7,69.7,0,0,1-33.66,11.23V397.92C362,418.45,385,422.86,402,422.9a69.38,69.38,0,0,1,41.62,17.22,5,5,0,1,0,6.6-7.51,79.13,79.13,0,0,0-39.05-18.67,79.25,79.25,0,0,0,12.4-42.81,5,5,0,0,0-10,0,69.37,69.37,0,0,1-13.8,41.73c-38.17-1-48-25.87-50.47-36.9C386.53,374,404.75,353.33,413.53,335.83Zm-140,40.3h57.81L290.51,417A69.78,69.78,0,0,1,273.56,376.13Zm64.53,7.42V441a69.68,69.68,0,0,1-40.5-16.93Zm-64.53-17.42a69.75,69.75,0,0,1,16.77-40.64l41,40.64Zm71.91,0-48.1-47.71a69.78,69.78,0,0,1,46.07-17.34h69.75a89.73,89.73,0,0,1-8.6,30.3C393.29,353.88,373.4,365.56,345.47,366.1Z"/><circle class="cls-2" cx="350.94" cy="320.04" r="10.57"/><path class="cls-2" d="M306.13,218.22c6.15,10.29,16.75,23.23,34.77,34.93a165.41,165.41,0,0,1-16,6.73,5,5,0,0,0,3.4,9.4,169.44,169.44,0,0,0,22.81-10.11,169.44,169.44,0,0,0,22.81,10.11,4.8,4.8,0,0,0,1.7.3,5,5,0,0,0,1.7-9.7,165.41,165.41,0,0,1-16-6.73c18-11.7,28.62-24.64,34.76-34.93,10.19-17.06,10.81-30.81,10.83-31.38v-.19c0-12.34-9-25.08-21.7-33.89a4.35,4.35,0,0,0-.57-.38c-9.85-6.7-21.83-11-33.52-11s-23.56,4.29-33.39,10.93a5.18,5.18,0,0,0-.87.6c-12.6,8.81-21.54,21.49-21.54,33.77a1.15,1.15,0,0,0,0,.19C295.33,187.41,295.94,201.16,306.13,218.22Zm10.19-52.06c1.44,10.68,3.88,29.18,5.66,42.76a5,5,0,0,0,4.95,4.35,4.89,4.89,0,0,0,.66-.05,5,5,0,0,0,4.31-5.6l-3.4-25.8c-.86-6.45-1.72-12.9-2.37-17.74-.26-1.94-.49-3.62-.67-4.94a51.59,51.59,0,0,1,20.64-7.48v71a5,5,0,0,0,10,0v-71a51.59,51.59,0,0,1,20.59,7.45l-8.18,49a5,5,0,0,0,4.11,5.76,4.73,4.73,0,0,0,.83.07,5,5,0,0,0,4.93-4.18l7.3-43.82c6.81,6.41,11.16,14,11.21,20.56-.07,1.07-1,12.77-9.73,27.1-8.06,13.26-20.31,24.78-36.06,34.06-15.76-9.28-28-20.8-36.06-34.06-8.74-14.39-9.67-26.12-9.74-27.1C305.35,180,309.62,172.53,316.32,166.16Z"/></g></svg>