<svg xmlns="http://www.w3.org/2000/svg" viewBox="0 0 570 570"><defs><style>.cls-1{fill:#004751;}.cls-2{fill:#ff9366;}</style></defs><g id="On_Light" data-name="On Light"><path class="cls-1" d="M303,234.92a40.84,40.84,0,0,0-69.71-28.87l-50.22,50.22a5,5,0,0,0,0,7.08l47.26,47L183.8,356.88a30.83,30.83,0,1,1-43.6-43.6l36.6-36.6a5,5,0,1,0-7.07-7.07l-36.6,36.6A40.83,40.83,0,0,0,190.88,364L291,263.79A40.56,40.56,0,0,0,303,234.92Zm-65.59,68.36L193.69,259.8l46.68-46.68a30.83,30.83,0,1,1,43.6,43.6Z"/><path class="cls-1" d="M249.72,344.52a45.07,45.07,0,1,0,45.07,45.07A45.12,45.12,0,0,0,249.72,344.52Zm0,10a35.13,35.13,0,0,1,34.71,30.07H215A35.13,35.13,0,0,1,249.72,354.52Zm0,70.14A35.12,35.12,0,0,1,215,394.59h69.42A35.12,35.12,0,0,1,249.72,424.66Z"/><path class="cls-1" d="M356.15,244.14A44.93,44.93,0,0,0,388,231h0a45.11,45.11,0,1,0-31.87,13.18ZM381,174.29a35.07,35.07,0,0,1,3.28,45.81L335.15,171a35.09,35.09,0,0,1,45.8,3.28Zm-52.87,3.79,49.08,49.09a35.07,35.07,0,0,1-49.08-49.09Z"/><path class="cls-1" d="M416.61,256.56a33.41,33.41,0,0,0-47.26,0L343,282.93H305.7a33.42,33.42,0,0,0,0,66.83h39.36a5,5,0,0,0,5-5V307a5,5,0,0,0-10,0v32.81H305.7a23.42,23.42,0,0,1,0-46.83H343l38.72,38.72a5,5,0,0,0,7.07,0l27.83-27.83a33.41,33.41,0,0,0,0-47.26Zm-7.07,40.19L385.25,321l-33.12-33.11,24.3-24.3a23.42,23.42,0,0,1,33.11,33.12Z"/><path class="cls-1" d="M369.3,344a6.58,6.58,0,1,0,6.58,6.58A6.59,6.59,0,0,0,369.3,344Z"/><circle class="cls-1" cx="358.21" cy="364.62" r="6.58"/><circle class="cls-1" cx="375.88" cy="367.04" r="6.58"/><circle class="cls-1" cx="386.78" cy="350.53" r="6.58"/><path class="cls-1" d="M376.16,382.62a6.58,6.58,0,1,0,6.58-6.57A6.58,6.58,0,0,0,376.16,382.62Z"/><path class="cls-1" d="M371.65,380.2a6.58,6.58,0,1,0-6.58,6.57A6.58,6.58,0,0,0,371.65,380.2Z"/><circle class="cls-1" cx="387.91" cy="400.11" r="6.58"/><path class="cls-1" d="M371.65,414.12a6.58,6.58,0,1,0,6.57,6.58A6.58,6.58,0,0,0,371.65,414.12Z"/><path class="cls-2" d="M285,45a240.06,240.06,0,0,1,93.42,461.14A240.06,240.06,0,0,1,191.58,63.86,238.42,238.42,0,0,1,285,45m0-10C146.93,35,35,146.93,35,285S146.93,535,285,535,535,423.07,535,285,423.07,35,285,35Z"/></g></svg>