<svg xmlns="http://www.w3.org/2000/svg" viewBox="0 0 570 570"><defs><style>.cls-1{fill:#004751;}.cls-2{fill:#ff9366;}</style></defs><g id="On_Light" data-name="On Light"><path class="cls-1" d="M284.78,417.67h-.09c-10.78-.17-19-8.89-19.21-20.28,0-1.52,0-3,0-4.57,0-2,0-4,0-5.9-.34-9.9-4.79-16.58-13.63-20.41-9-3.93-17.11-2.68-24.66,3.8-1.72,1.48-3.35,3.14-5.06,4.89-1,1-2,2.06-3.06,3.06-8,7.74-19.45,7.9-27.22.38s-8-19.46-.35-27.57c1.21-1.28,2.45-2.49,3.65-3.67,1.41-1.37,2.74-2.68,4-4,6.84-7.5,8.32-15.61,4.53-24.79-3.72-9-10.41-13.61-20.46-14-2-.08-4-.07-6.17,0-1.64,0-3.33,0-5,0a5,5,0,0,1,.2-10c1.55,0,3.09,0,4.72,0,2.17,0,4.42,0,6.69.06,13.95.6,24.07,7.59,29.28,20.21s3.07,25-6.38,35.35c-1.43,1.58-2.93,3-4.38,4.46-1.18,1.15-2.3,2.24-3.37,3.37-3.92,4.15-3.91,9.71,0,13.52s9.22,3.59,13.32-.38c1-.93,1.92-1.9,2.86-2.87,1.8-1.82,3.65-3.71,5.7-5.47,10.45-9,22.61-10.84,35.16-5.4,12.38,5.38,19.17,15.49,19.63,29.25.07,2.14.06,4.26,0,6.32,0,1.45,0,2.9,0,4.35.09,5.95,4,10.34,9.38,10.42a5,5,0,0,1-.08,10Zm14.73-14.94h-.2a5,5,0,0,1-4.8-5.2c.09-2.19.07-4.38.05-6.71,0-1,0-1.95,0-2.93,0-14.55,6.89-25.16,20-30.69s25.68-3.18,36.31,6.86c1.38,1.3,2.71,2.65,4,3.94,1,1,2,2,3,3,4.19,4,9.62,4.16,13.51.26s3.78-9.2-.1-13.34c-1.13-1.2-2.31-2.36-3.56-3.58-1.46-1.43-3-2.92-4.42-4.5-8.42-9.22-10.92-20.38-7.23-32.26s12.15-19.72,24.38-22.38a46.24,46.24,0,0,1,7.78-.79c1,0,2-.08,3-.16a4.9,4.9,0,0,1,1.84.2h.8c1.56,0,3,0,4.47,0,5.48-.24,9.61-4.31,9.62-9.47a5,5,0,0,1,5-5h0a5,5,0,0,1,5,5,19.74,19.74,0,0,1-19.18,19.44c-1.72.08-3.4.06-5,0l-2.12,0a5.13,5.13,0,0,1-1.12-.12l-1.89.08a36.51,36.51,0,0,0-6.09.58c-8.74,1.89-14.28,7-16.94,15.56s-1,15.92,5.06,22.55c1.26,1.39,2.61,2.71,4,4.1,1.27,1.25,2.58,2.53,3.86,3.89,7.59,8.1,7.54,19.56-.12,27.24s-19.37,7.76-27.54-.13c-1.09-1.05-2.15-2.13-3.21-3.2-1.28-1.3-2.48-2.52-3.73-3.7-7.74-7.31-16.1-8.92-25.55-4.92s-13.87,11-13.86,21.48c0,.95,0,1.9,0,2.84,0,2.34.05,4.76-.05,7.2A5,5,0,0,1,299.51,402.73ZM157.05,289.93h0a5,5,0,0,1-5-5c.06-10.92,8.7-19.26,20.1-19.4,1.48,0,3,0,4.44,0,2.43,0,4.73.05,7-.08,9.61-.53,16.1-5,19.85-13.56,3.87-8.84,2.77-16.74-3.37-24.16a72.92,72.92,0,0,0-5.21-5.45c-1-1-2.11-2.06-3.16-3.15-7.74-8-7.74-19.87,0-27.55,7.59-7.53,19.3-7.52,27.24,0,1.21,1.15,2.36,2.32,3.47,3.46,1.43,1.47,2.79,2.86,4.21,4.14,7.55,6.8,15.67,8.25,24.83,4.43s13.71-10.6,14-20.79c.05-1.74,0-3.48,0-5.31s0-3.72,0-5.62a5,5,0,1,1,10,.28c0,1.72,0,3.44,0,5.26s0,3.76,0,5.68c-.41,14.12-7.38,24.41-20.16,29.73s-24.95,3.15-35.36-6.23c-1.66-1.5-3.19-3.06-4.67-4.58-1.1-1.12-2.14-2.18-3.21-3.2-4.05-3.86-9.52-3.93-13.3-.18-3.94,3.9-3.88,9.33.15,13.51,1,1,1.95,2,2.95,2.94a82.16,82.16,0,0,1,5.93,6.23c8.53,10.31,10.2,22.26,4.83,34.54-5.26,12-15.11,18.8-28.47,19.54-2.6.14-5.17.11-7.66.09-1.4,0-2.81,0-4.21,0-5.89.07-10.19,4.05-10.22,9.45A5,5,0,0,1,157.05,289.93Zm241.18-14.42h-.12c-1.73,0-3.45,0-5.27,0s-3.75,0-5.67,0c-14.19-.33-24.54-7.21-29.92-19.88-5.47-12.89-3.32-25.24,6.23-35.73,1.48-1.62,3-3.14,4.51-4.6,1.14-1.12,2.21-2.17,3.25-3.26,3.83-4,3.84-9.49,0-13.29S362,195,358,198.79c-1.31,1.25-2.58,2.53-3.92,3.88-1.17,1.19-2.35,2.38-3.55,3.54-10,9.6-23.85,12.11-36.22,6.55-12.71-5.72-19.54-16.08-19.74-30,0-1.36,0-2.73,0-4.1,0-2.51.06-4.89-.14-7.2-.45-5.26-4.48-9.16-9.41-9.16h-.22a5,5,0,0,1-.23-10c10.4-.27,18.91,7.63,19.83,18.31.23,2.79.2,5.52.17,8.17,0,1.28,0,2.56,0,3.84.15,10,4.67,16.86,13.84,21A22.48,22.48,0,0,0,343.56,199c1.15-1.11,2.26-2.24,3.38-3.37,1.34-1.35,2.72-2.75,4.16-4.11,7.94-7.52,19.66-7.48,27.25.11s7.67,19.33.13,27.25c-1.15,1.21-2.34,2.38-3.48,3.5-1.46,1.43-2.84,2.79-4.12,4.2-6.92,7.6-8.37,15.81-4.43,25.09,3.85,9,10.7,13.55,21,13.8,1.76,0,3.51,0,5.36,0s3.69,0,5.57,0a5,5,0,0,1-.11,10Z"/><path class="cls-1" d="M300.9,329.44h-.28a28.58,28.58,0,0,1,.15-57.15h.09a28.58,28.58,0,1,1,0,57.15Zm0-47.15h-.06a18.68,18.68,0,0,0-18.52,18.43,18.58,18.58,0,1,0,37.15.4h0a18.72,18.72,0,0,0-5.4-13.45A18.44,18.44,0,0,0,300.86,282.29Z"/><path class="cls-1" d="M261.18,280.18h-.41a19,19,0,0,1,.32-38.05h0A18.62,18.62,0,0,1,280,261.26h0a19,19,0,0,1-5.72,13.63A18.67,18.67,0,0,1,261.18,280.18Zm-.09-28.05a8.75,8.75,0,0,0-9,8.75,8.92,8.92,0,0,0,8.86,9.3,8.69,8.69,0,0,0,6.33-2.46,9.49,9.49,0,0,0,.19-13.06,8.92,8.92,0,0,0-6.39-2.53Zm13.92,9.1h0Z"/><path class="cls-2" d="M285,540A255,255,0,0,1,104.69,104.69,255,255,0,1,1,465.31,465.31,253.3,253.3,0,0,1,285,540Zm0-500A245,245,0,0,0,111.76,458.24,245,245,0,1,0,458.24,111.76,243.37,243.37,0,0,0,285,40Z"/></g></svg>