<svg xmlns="http://www.w3.org/2000/svg" viewBox="0 0 570 570"><defs><style>.cls-1{fill:#004751;}.cls-2{fill:#ff9366;}</style></defs><g id="On_Light" data-name="On Light"><path class="cls-1" d="M396.28,230H379.44a44.54,44.54,0,0,0-9.58-23.13L381.76,195a5,5,0,1,0-7.07-7.07l-11.9,11.9a44.69,44.69,0,0,0-23.13-9.58V173.38a5,5,0,0,0-10,0v16.83a44.68,44.68,0,0,0-23.14,9.58l-11.9-11.9a5,5,0,0,0-7.07,7.07l11.9,11.91A44.54,44.54,0,0,0,289.87,230H273a5,5,0,0,0,0,10h16.84a44.59,44.59,0,0,0,9.57,23.14L287.55,275a5,5,0,0,0,7.07,7.07l15.24-15.24a5,5,0,0,0,0-7.07,35.07,35.07,0,1,1,49.59,0A35.27,35.27,0,0,1,323,268.07a5,5,0,0,0-3.32,9.43,43.88,43.88,0,0,0,10,2.27v16.85a5,5,0,0,0,10,0V279.75a45.37,45.37,0,0,0,23.13-9.55l11.9,11.91a5,5,0,1,0,7.07-7.07l-11.9-11.91A44.54,44.54,0,0,0,379.44,240h16.84a5,5,0,0,0,0-10Z"/><path class="cls-1" d="M359.66,330.07a29.94,29.94,0,1,0,21.16,8.77A29.71,29.71,0,0,0,359.66,330.07Zm14.09,44A19.92,19.92,0,1,1,379.59,360,19.94,19.94,0,0,1,373.75,374.09Z"/><path class="cls-1" d="M209.66,239.92a29.91,29.91,0,1,0-21.17-8.75A29.86,29.86,0,0,0,209.66,239.92Zm-14.1-44A19.92,19.92,0,1,1,189.72,210,19.79,19.79,0,0,1,195.56,195.91Z"/><circle class="cls-1" cx="159.66" cy="235" r="10.57"/><circle class="cls-1" cx="209.66" cy="260.44" r="10.57"/><path class="cls-1" d="M296.28,330H279.44a44.81,44.81,0,0,0-9.6-23.12L281.76,295a5,5,0,1,0-7.07-7.07l-11.92,11.92a45,45,0,0,0-23.11-9.6V273.38a5,5,0,0,0-10,0v16.84a45.27,45.27,0,0,0-23.11,9.6l-11.93-11.93a5,5,0,1,0-7.07,7.07l11.91,11.92a44.67,44.67,0,0,0-5.48,8.68,5,5,0,1,0,9,4.32A35.1,35.1,0,1,1,199.59,335a5,5,0,0,0-5-5H173a5,5,0,1,0,0,10h16.83a44.79,44.79,0,0,0,9.61,23.12L187.55,375a5,5,0,0,0,7.07,7.07l11.92-11.92a44.85,44.85,0,0,0,23.12,9.59v16.84a5,5,0,0,0,10,0V379.79a45,45,0,0,0,23.11-9.6l11.92,11.92a5,5,0,1,0,7.07-7.07l-11.92-11.92a44.81,44.81,0,0,0,9.6-23.12h16.84a5,5,0,0,0,0-10Z"/><path class="cls-2" d="M285,45a240.06,240.06,0,0,1,93.42,461.14A240.06,240.06,0,0,1,191.58,63.86,238.42,238.42,0,0,1,285,45m0-10C146.93,35,35,146.93,35,285S146.93,535,285,535,535,423.07,535,285,423.07,35,285,35Z"/></g></svg>