<svg xmlns="http://www.w3.org/2000/svg" viewBox="0 0 570 570"><defs><style>.cls-1{fill:#004751;}.cls-2{fill:#ff9366;}</style></defs><g id="On_Light" data-name="On Light"><path class="cls-1" d="M447.26,228.91a29.77,29.77,0,0,0-10.88-20.16,31,31,0,0,0-4.45-3,30.8,30.8,0,0,0-10.71-54.09,29.74,29.74,0,0,0-3.42-.72,3.18,3.18,0,0,0,.1-.33,29.93,29.93,0,0,0-54.55-22.14A29.92,29.92,0,0,0,313,148.29,29.92,29.92,0,1,0,314.38,201a5,5,0,0,0-4.95-8.69,19.92,19.92,0,1,1,9.36-12,5,5,0,0,0,9.64,2.64,29.74,29.74,0,0,0-2.86-22.73,19.93,19.93,0,1,1,34.63-19.74,5,5,0,0,0,9.17-1.15,19.94,19.94,0,0,1,25.71-13.59,20.16,20.16,0,0,1,13,22.87,4.94,4.94,0,0,0,.11,2.39A30.83,30.83,0,0,0,391,159.9a5,5,0,1,0,7.16,7,20.84,20.84,0,1,1,16.46,35.3h-.15c-.15,0-.28.06-.43.08s-.33.06-.49.11a2.58,2.58,0,0,0-.46.18,3.57,3.57,0,0,0-.45.19,4.65,4.65,0,0,0-.41.26c-.13.09-.27.17-.39.27a3.68,3.68,0,0,0-.35.33l-.34.34c-.1.12-.18.26-.27.39s-.19.26-.27.4-.13.29-.2.44-.13.29-.18.44-.08.32-.12.49-.07.31-.09.47,0,.34,0,.52,0,.28,0,.42,0,0,0,.08,0,.05,0,.07a3.4,3.4,0,0,0,.07.34,5,5,0,0,0,.11.56c0,.14.1.27.15.4a4.25,4.25,0,0,0,.21.49c.07.13.15.25.22.36a4.27,4.27,0,0,0,.3.44,2.7,2.7,0,0,0,.28.31,4.08,4.08,0,0,0,.36.36l.34.26a4,4,0,0,0,.43.28,2.75,2.75,0,0,0,.38.2l.47.2c.14,0,.28.08.43.12a4.26,4.26,0,0,0,.49.1l.47,0,.25,0h.52a19.94,19.94,0,0,1,21.86,17.79,19.92,19.92,0,0,1-30.7,18.73,30.05,30.05,0,0,0-13.77-25.47A32,32,0,0,0,354,173,5,5,0,1,0,359,181.7,22,22,0,1,1,380.79,220l-.06,0a5.53,5.53,0,0,0-.74.53,2.58,2.58,0,0,0-.32.34,3.06,3.06,0,0,0-.35.37c-.12.15-.2.31-.3.46s-.16.24-.22.37a5,5,0,0,0-.52,1.89,3.09,3.09,0,0,0,0,.43,3.25,3.25,0,0,0,0,.54,4.19,4.19,0,0,0,.11.51,3.13,3.13,0,0,0,.1.44,4.53,4.53,0,0,0,.39.87,0,0,0,0,0,0,0,5.29,5.29,0,0,0,.5.71l.14.16a4.3,4.3,0,0,0,.54.51.43.43,0,0,0,.1.09,5,5,0,0,0,.73.47l.18.09a5.24,5.24,0,0,0,.78.3l.05,0a19.93,19.93,0,1,1-24.49,14,5,5,0,1,0-9.64-2.65,29.79,29.79,0,0,0-1,10.26l-31.92,31.92a5,5,0,0,0,7.07,7.07l27.94-27.94A29.9,29.9,0,0,0,404.65,259a29.7,29.7,0,0,0,15.88,2.74A30,30,0,0,0,447.26,228.91Z"/><path class="cls-1" d="M305.68,212.08a5,5,0,0,0-7.07,0l-27.13,27.13a5,5,0,0,0,0,7.07l25.9,25.9a5,5,0,0,0,7.07,0l33.64-33.64.09-.09a32.06,32.06,0,0,0-1.11-45.3,5,5,0,0,0-6.9,7.25,22.06,22.06,0,0,1,.81,31.11l-30.06,30.06-18.83-18.82,23.59-23.6A5,5,0,0,0,305.68,212.08Z"/><path class="cls-1" d="M171.07,236.7a13.33,13.33,0,0,0,13.33-14.46c-.4-4.88-2.5-9.07-6.63-13.2-5.13-5.13-13.28-8-24.22-8.44a5,5,0,0,0-3.76,1.46,5,5,0,0,0-1.46,3.75c.48,10.95,3.32,19.1,8.44,24.22,4.13,4.13,8.33,6.24,13.2,6.63C170.34,236.69,170.7,236.7,171.07,236.7Zm-12.2-25.57c5.38.83,9.34,2.5,11.83,5,3,3,3.58,5.12,3.73,6.93a3.34,3.34,0,0,1-3.66,3.65c-1.8-.14-3.89-.7-6.92-3.73C161.36,220.48,159.69,216.51,158.87,211.13Z"/><path class="cls-1" d="M211.22,238.44c.52,0,1.05,0,1.58-.07,7.48-.6,13.69-3.75,20.15-10.2,8-8,12.5-21,13.27-38.68a5,5,0,0,0-5.22-5.21c-17.62.77-30.63,5.23-38.67,13.27-6.46,6.46-9.61,12.67-10.21,20.15a19.1,19.1,0,0,0,19.1,20.74Zm-9.13-19.94c.28-3.53,1.38-7.94,7.31-13.88,5.41-5.41,14.29-8.75,26.43-10-1.2,12.15-4.54,21-10,26.44-5.94,5.93-10.35,7-13.89,7.31a9.11,9.11,0,0,1-9.9-9.91Z"/><path class="cls-1" d="M221.6,246.1,217,248.32a17.23,17.23,0,0,1-7.4,1.68h0a17.18,17.18,0,0,1-7.44-1.68l-4.64-2.22c-8.27-4-18.32-.31-24,5.34a50.73,50.73,0,0,0-13.6,47.7l17,84.87a5,5,0,0,0,4.91,4h35.61a5,5,0,1,0,0-10H185.93l-16.25-80.93c0-.06,0-.11,0-.16a40.79,40.79,0,0,1,10.92-38.42c3.51-3.51,9.16-5,12.58-3.39l4.64,2.22A26.74,26.74,0,0,0,209.47,260h.11a27.25,27.25,0,0,0,11.7-2.66l4.64-2.22c3.42-1.64,9.07-.12,12.58,3.39a40.82,40.82,0,0,1,10.92,38.42,1.29,1.29,0,0,0,0,.19l-4.71,24.28L199.55,321h0a5,5,0,0,0,0,10l49.28.39h0a5,5,0,0,0,4.91-4.05l5.48-28.26a50.73,50.73,0,0,0-13.61-47.68C239.92,245.79,229.87,242.14,221.6,246.1Z"/><path class="cls-1" d="M246.49,338.3a5,5,0,0,0-5.86,4l-17.31,89.38c-1.63,8.41-8.46,11.39-13.81,11.39h0c-5.33,0-12.12-3-13.78-11.29l-4.91-32.56a5,5,0,0,0-9.89,1.49l4.93,32.67,0,.2C188.5,447,199.63,453,209.51,453h0c9.88,0,21-6,23.62-19.48l17.32-89.39A5,5,0,0,0,246.49,338.3Z"/><path class="cls-1" d="M230.6,352.59a5,5,0,0,0-5-5H191.42a5,5,0,0,0,0,10H225.6A5,5,0,0,0,230.6,352.59Z"/><path class="cls-1" d="M217.5,414.45a5,5,0,1,0,0-10H202a5,5,0,0,0,0,10Z"/><path class="cls-1" d="M334.56,312.49A72.51,72.51,0,1,0,407.07,385,72.59,72.59,0,0,0,334.56,312.49Zm0,135A62.51,62.51,0,1,1,397.07,385,62.58,62.58,0,0,1,334.56,447.51Z"/><path class="cls-1" d="M374.38,357.32h-9.56a16.46,16.46,0,0,1-15.69-11.4l-2.95-9.1a5,5,0,0,0-9.52,0l-3,9.1A16.45,16.45,0,0,1,318,357.32h-9.56a5,5,0,0,0-2.94,9l7.74,5.62a16.45,16.45,0,0,1,6,18.44l-2.95,9.1a5,5,0,0,0,7.69,5.59l7.74-5.62a16.42,16.42,0,0,1,19.38,0l7.74,5.62a5,5,0,1,0,5.88-8.09L357,391.4A26.42,26.42,0,0,0,329.8,389a26.38,26.38,0,0,0-7.17-22.09,26.4,26.4,0,0,0,18.79-13.66,26.4,26.4,0,0,0,18.79,13.66,26.33,26.33,0,0,0-7.09,14.2,5,5,0,0,0,9.87,1.59A16.41,16.41,0,0,1,369.58,372l7.74-5.62a5,5,0,0,0-2.94-9Z"/><path class="cls-2" d="M285,45a240.06,240.06,0,0,1,93.42,461.14A240.06,240.06,0,0,1,191.58,63.86,238.42,238.42,0,0,1,285,45m0-10C146.93,35,35,146.93,35,285S146.93,535,285,535,535,423.07,535,285,423.07,35,285,35Z"/></g></svg>