<svg xmlns="http://www.w3.org/2000/svg" viewBox="0 0 570 570"><defs><style>.cls-1{fill:#004751;}.cls-2{fill:#ff9366;}</style></defs><g id="On_Light" data-name="On Light"><path class="cls-1" d="M268.89,412.17a5,5,0,0,0-7.07,0A73.78,73.78,0,0,1,157.49,307.83a5,5,0,1,0-7.07-7.07A83.77,83.77,0,0,0,268.89,419.24,5,5,0,0,0,268.89,412.17Z"/><path class="cls-1" d="M166.79,403.23a60.89,60.89,0,0,0,86.1,0,5,5,0,0,0,0-7.07l-39.7-39.69h0l-39.33-39.32a5,5,0,0,0-7.07,0A60.93,60.93,0,0,0,166.79,403.23Zm38.05,7.59a50.43,50.43,0,0,1-27.47-11.46l27.47-27.47Zm-34.5-18.57a50.67,50.67,0,0,1-11.11-27.07H197.4Zm44.5,18.56V372.25l27.27,27.28A50.38,50.38,0,0,1,214.84,410.81Zm-44.34-82.9,27.27,27.27H159.24A50.63,50.63,0,0,1,170.5,327.91Z"/><path class="cls-1" d="M238.67,197.16a13.56,13.56,0,0,0,10.32-4.8c3.21-3.77,4.71-8.29,4.71-14.22,0-7.36-3.82-15.26-11.35-23.48a5,5,0,0,0-7.37,0c-7.53,8.22-11.35,16.12-11.35,23.48,0,5.93,1.5,10.45,4.71,14.22A13.56,13.56,0,0,0,238.67,197.16Zm0-31.3c3.34,4.54,5,8.65,5,12.28,0,4.4-1.12,6.32-2.33,7.74a3.5,3.5,0,0,1-5.41,0c-1.21-1.42-2.33-3.34-2.33-7.74C233.63,174.51,235.32,170.4,238.67,165.86Z"/><path class="cls-1" d="M201.25,222.56c.54,0,1.07.06,1.6.06a19.36,19.36,0,0,0,19.37-21c-.62-7.59-3.82-13.91-10.38-20.47-8.17-8.18-21.41-12.72-39.35-13.5a5,5,0,0,0-3.75,1.46,5,5,0,0,0-1.46,3.75c.78,17.94,5.32,31.18,13.49,39.35C187.34,218.75,193.65,222,201.25,222.56Zm3.52-34.37c6.07,6.07,7.19,10.59,7.48,14.21a9.37,9.37,0,0,1-10.2,10.19c-3.62-.29-8.13-1.4-14.21-7.48-5.54-5.54-9-14.65-10.18-27.11C190.12,179.22,199.22,182.64,204.77,188.19Z"/><path class="cls-1" d="M331.86,300a27.09,27.09,0,0,0-12.47-33.32,27.85,27.85,0,0,0-15.19-47.36,27.07,27.07,0,0,0-24.67-21,26.8,26.8,0,0,0-20.25,7.29,27.19,27.19,0,0,0-7.11,11.08A27.07,27.07,0,0,0,213.07,241c0,.88,0,1.75.12,2.62a27.06,27.06,0,1,0-6.24,53.4,28.26,28.26,0,0,0,4.53-.37,27.1,27.1,0,0,0,37.88,29.17,5,5,0,1,0-4.13-9.11,17.08,17.08,0,0,1-19.14-27.62,5,5,0,0,0,0-7.07,5,5,0,0,0-7.07,0,17.07,17.07,0,0,1-24.14,0,17.07,17.07,0,0,1,24-24.29c.55.7,1.14,1.37,1.76,2A16.91,16.91,0,0,1,224,270a5,5,0,0,0,10,0,26.89,26.89,0,0,0-7.55-18.75A17.06,17.06,0,0,1,252.21,229a5,5,0,0,0,8.53-3.53,17.08,17.08,0,0,1,18.17-17,17.32,17.32,0,0,1,15,11.29,27.86,27.86,0,0,0-18.43,13.75,5,5,0,0,0,8.75,4.83,17.87,17.87,0,1,1,22.32,25.19h0a5,5,0,0,0,0,10,17.07,17.07,0,0,1,10.32,30.67,5,5,0,0,0,6.06,8,28.27,28.27,0,0,0,3.15-2.82,16.43,16.43,0,1,1-17.16,16.41,4.83,4.83,0,0,0-.15-1.15,26.84,26.84,0,0,0,2.78-11.93,5,5,0,1,0-10,0,17.07,17.07,0,1,1-17.07-17.07,20,20,0,0,1,12.67,4.55,5,5,0,1,0,6.37-7.71,30,30,0,0,0-10.24-5.51,28.94,28.94,0,1,0-46.19,7.21,5,5,0,0,0,7.07-7.07,18.94,18.94,0,1,1,28-1.36,27.06,27.06,0,1,0,18.25,48.82A26.45,26.45,0,1,0,331.86,300Z"/><path class="cls-1" d="M333,421.75a5,5,0,0,0,1.67,9.72,5.09,5.09,0,0,0,1.66-.29,155.1,155.1,0,0,0,82.6-223.69,5,5,0,0,0-8.66,5A145.09,145.09,0,0,1,333,421.75Z"/><path class="cls-1" d="M447.33,207.85a179.86,179.86,0,0,0-35.4-50.13l-.11-.09a179.27,179.27,0,0,0-24.3-20.36,5,5,0,1,0-5.72,8.2,170.45,170.45,0,0,1,25.81,22.14h0A170,170,0,0,1,301.06,454.22l-9.54-9.57c.87-7.34,6.28-32.52,39.86-45.35l.11,0A123.57,123.57,0,0,0,396.6,232.88c-15.83-33.85,3.45-56.11,4.28-57a5,5,0,0,0-7.43-6.69c-1,1.12-24.64,27.92-5.91,68A113.57,113.57,0,0,1,327.75,390c-45.19,17.31-46.36,54.89-46.39,56.49a5,5,0,0,0,1.46,3.61l12.81,12.86a5,5,0,0,0,3.54,1.47l.41,0A180.09,180.09,0,0,0,447.33,207.85Z"/><path class="cls-1" d="M322,190a42.7,42.7,0,1,1,42.71-42.7A42.75,42.75,0,0,1,322,190Zm0-75.4a32.7,32.7,0,1,0,32.71,32.7A32.74,32.74,0,0,0,322,114.6Z"/><circle class="cls-1" cx="323.03" cy="138.04" r="6.58"/><circle class="cls-1" cx="311.94" cy="152.13" r="6.58"/><circle class="cls-1" cx="329.61" cy="154.55" r="6.58"/><path class="cls-2" d="M285,45a240.06,240.06,0,0,1,93.42,461.14A240.06,240.06,0,0,1,191.58,63.86,238.42,238.42,0,0,1,285,45m0-10C146.93,35,35,146.93,35,285S146.93,535,285,535,535,423.07,535,285,423.07,35,285,35Z"/></g></svg>