<svg xmlns="http://www.w3.org/2000/svg" viewBox="0 0 570 570"><defs><style>.cls-1{fill:#004751;}.cls-2{fill:#ff9366;}</style></defs><g id="On_Light" data-name="On Light"><path class="cls-1" d="M303.94,461.54H265.83a44.16,44.16,0,0,1-44.07-39.8l-12.47-132.5a5,5,0,0,1,5-5.47H355.49a5,5,0,0,1,0,10H219.76l12,127a34.19,34.19,0,0,0,34.12,30.78h38.11a34.2,34.2,0,0,0,34.12-30.82l9.48-105c-8.92-2.3-33.16-6-57.35,12.72-30.66,23.75-51.41,15.27-52.28,14.9a5,5,0,0,1,4-9.19c.6.23,16.58,6.23,42.21-13.62C318.44,294,353.23,307,354.69,307.52a5,5,0,0,1,3.18,5.11L348,421.68A44.18,44.18,0,0,1,303.94,461.54Z"/><path class="cls-2" d="M285,45a240.06,240.06,0,0,1,93.42,461.14A240.06,240.06,0,0,1,191.58,63.86,238.42,238.42,0,0,1,285,45m0-10C146.93,35,35,146.93,35,285S146.93,535,285,535,535,423.07,535,285,423.07,35,285,35Z"/><path class="cls-1" d="M344,197.56a22,22,0,0,1-16.78-7.82c-5.67-6.66-8.19-14.4-8.19-25.11,0-13.38,7.16-28,21.29-43.4a5,5,0,0,1,7.37,0c14.13,15.42,21.29,30,21.29,43.4,0,10.7-2.52,18.45-8.19,25.11A22,22,0,0,1,344,197.56Zm0-65.37C334,144.06,329,155,329,164.63c0,10.4,2.93,15.25,5.81,18.63a11.92,11.92,0,0,0,18.33,0c2.87-3.38,5.81-8.23,5.81-18.63C358.93,155,353.9,144.06,344,132.19Z"/><path class="cls-1" d="M305.51,137.17a13.94,13.94,0,0,1-10.63-4.95c-3.33-3.91-4.88-8.59-4.88-14.74,0-7.65,4-15.87,11.83-24.43a5,5,0,0,1,7.37,0C317,101.61,321,109.83,321,117.48c0,6.15-1.55,10.83-4.88,14.74A13.93,13.93,0,0,1,305.51,137.17Zm0-32.95c-3.66,4.9-5.51,9.34-5.51,13.26,0,4.69,1.2,6.74,2.5,8.26a3.89,3.89,0,0,0,6,0c1.29-1.52,2.49-3.57,2.49-8.26C311,113.56,309.17,109.12,305.51,104.22Z"/><path class="cls-1" d="M279,261.4a33.24,33.24,0,0,1-25.3-11.79c-6-7-12.8-17.82-12.8-39.47,0-21.32,11.58-44.76,34.41-69.68a5,5,0,0,1,7.37,0C305.46,165.38,317,188.82,317,210.14c0,21.65-6.84,32.46-12.8,39.47A33.23,33.23,0,0,1,279,261.4Zm0-110c-18.65,21.41-28.1,41.17-28.1,58.79,0,18.28,5.27,26.93,10.41,33a23,23,0,0,0,35.37,0c5.14-6.06,10.41-14.71,10.41-33C307,192.52,297.59,172.76,279,151.35Z"/></g></svg>