<svg xmlns="http://www.w3.org/2000/svg" viewBox="0 0 570 570"><defs><style>.cls-1{fill:#004751;}.cls-2{fill:#ff9366;}</style></defs><g id="On_Light" data-name="On Light"><path class="cls-1" d="M390.35,272.32H364.61A40.4,40.4,0,0,0,338,201.46H320.55a5,5,0,0,0,0,10H338a30.43,30.43,0,1,1,0,60.86H179.63a5,5,0,0,0,0,10H338a40.37,40.37,0,0,0,4.82-.3,5,5,0,0,0,1.64.3h45.85a30.43,30.43,0,0,1,0,60.86H245.47a5,5,0,1,0,0,10H390.35a40.43,40.43,0,0,0,0-80.86Z"/><path class="cls-1" d="M290.29,383.61a5,5,0,0,0-5-5H243.83a30.43,30.43,0,1,1,0-60.86H385.14a5,5,0,0,0,0-10H176.75a30.43,30.43,0,1,1,0-60.86H328a5,5,0,0,0,0-10H243.83a30.43,30.43,0,0,1,0-60.86,5,5,0,0,0,0-10,40.41,40.41,0,0,0-26.58,70.86h-40.5a40.43,40.43,0,1,0,0,80.86h40.5a40.41,40.41,0,0,0,26.58,70.86h41.46A5,5,0,0,0,290.29,383.61Z"/><path class="cls-1" d="M240.47,206.46a5,5,0,0,0,5,5h33.07A40.46,40.46,0,0,0,319,171V140.36a5,5,0,0,0-10,0V171a30.46,30.46,0,0,1-30.42,30.43H245.47A5,5,0,0,0,240.47,206.46Z"/><path class="cls-1" d="M340,378.61a5,5,0,0,0-5,5A30.46,30.46,0,0,1,304.57,414a40.47,40.47,0,0,0-40.42,40.43,5,5,0,0,0,10,0A30.47,30.47,0,0,1,304.57,424,40.46,40.46,0,0,0,345,383.61,5,5,0,0,0,340,378.61Z"/><path class="cls-2" d="M285,45a240.06,240.06,0,0,1,93.42,461.14A240.06,240.06,0,0,1,191.58,63.86,238.42,238.42,0,0,1,285,45m0-10C146.93,35,35,146.93,35,285S146.93,535,285,535,535,423.07,535,285,423.07,35,285,35Z"/></g></svg>