<svg xmlns="http://www.w3.org/2000/svg" viewBox="0 0 570 570"><defs><style>.cls-1{fill:#004751;}.cls-2{fill:#ff9366;}</style></defs><g id="On_Light" data-name="On Light"><path class="cls-1" d="M300.75,443.91a10.57,10.57,0,1,0,10.56,10.57A10.57,10.57,0,0,0,300.75,443.91Z"/><circle class="cls-1" cx="285" cy="430.82" r="10.57"/><path class="cls-1" d="M269.25,443.74a10.57,10.57,0,1,0,10.57,10.57A10.56,10.56,0,0,0,269.25,443.74Z"/><path class="cls-1" d="M236.2,431.71c-.19-.07-18.68-7.49-38.4-27-18.29-18.07-41.17-50.41-46.32-101.82a5,5,0,1,0-9.95,1c5,49.47,25.55,82.35,43.87,102.36a40.3,40.3,0,0,1-26.17-4.81c-11.5-6.51-24.66-17-35-45.31-10.15-27.75-6.4-64.33,11.14-108.78C177.43,270,203.89,295.54,214,323.29c10.55,28.85,9.11,52.71-4.26,70.94a5,5,0,1,0,8.06,5.91c15.48-21.08,17.36-48.1,5.59-80.28-11.41-31.23-41.13-59.48-88.32-84a5,5,0,0,0-6.93,2.54c-20.27,49.14-24.76,89.89-13.35,121.12,11.54,31.55,27.16,43.61,39.49,50.58a50.43,50.43,0,0,0,24.91,6.61,49.54,49.54,0,0,0,14.42-2.15c20.05,18.85,38.1,26.1,38.89,26.41a4.91,4.91,0,0,0,1.83.35,5,5,0,0,0,1.84-9.65Z"/><path class="cls-1" d="M469.07,362.9c-7.72-5.49-14.83-7.88-21.11-7.1-5.1.64-8.84,2.42-11.77,5.62a12.07,12.07,0,0,0,2.28,18.3,16.88,16.88,0,0,0,9.6,2.76,25.48,25.48,0,0,0,3.19-.21c6.28-.78,12.58-4.84,18.73-12.06a5,5,0,0,0,1.15-3.86A5,5,0,0,0,469.07,362.9ZM450,372.35c-3.82.48-5.28-.48-6.06-1a2.06,2.06,0,0,1-.39-3.19c.63-.68,1.8-2,5.62-2.44a9.64,9.64,0,0,1,1.13-.07,17.69,17.69,0,0,1,7.95,2.3C454.7,371.1,451.91,372.12,450,372.35Z"/><path class="cls-1" d="M393.66,360.29a12.29,12.29,0,0,0,5.45,1.29,12,12,0,0,0,11.51-8.52c1.29-4.14,1-8.27-1.06-13-2.48-5.83-8.12-10.78-16.75-14.69a5,5,0,0,0-6.78,2.89c-3.15,8.93-3.49,16.42-1,22.25C387,355.25,389.78,358.35,393.66,360.29Zm.21-23c4,2.57,5.75,5,6.49,6.73,1.51,3.54,1,5.2.72,6.09a2.08,2.08,0,0,1-1.18,1.34,2.14,2.14,0,0,1-1.78-.08c-.83-.42-2.39-1.19-3.9-4.74C393.48,344.85,393,341.93,393.87,337.26Z"/><path class="cls-1" d="M420.69,324.31a12.1,12.1,0,0,0,5.73-8.4c.72-4.27-.17-8.32-2.8-12.73-3.24-5.45-9.49-9.59-18.57-12.31a5,5,0,0,0-6.33,3.77c-1.92,9.29-1.25,16.75,2,22.19,2.63,4.42,5.77,7.12,9.87,8.52a12.22,12.22,0,0,0,3.95.66A12,12,0,0,0,420.69,324.31Zm-6.89-8.43c-.88-.3-2.53-.86-4.5-4.17-1-1.63-1.89-4.46-1.6-9.2,4.31,2,6.36,4.15,7.33,5.79,2,3.31,1.69,5,1.53,5.94a2.09,2.09,0,0,1-1,1.48A2.06,2.06,0,0,1,413.8,315.88Z"/><path class="cls-1" d="M364.39,352.69a5,5,0,0,0-7.07,2.09c-5.5,11.29-7.11,21-4.77,28.9,1.88,6.33,4.89,10.67,9.49,13.66A14.7,14.7,0,0,0,383.62,391c2.22-5,2.39-10.3.51-16.63C381.79,366.43,375.15,359.15,364.39,352.69Zm10.09,34.21a4.72,4.72,0,0,1-7,2.07c-1.9-1.24-3.86-3.08-5.36-8.13-1.28-4.32-.65-9.83,1.88-16.43,5.71,4.16,9.24,8.43,10.52,12.75C376,382.21,375.4,384.82,374.48,386.9Z"/><path class="cls-1" d="M413.92,382a154.93,154.93,0,0,0,31.24-73.9,5,5,0,0,0-9.91-1.37A145.1,145.1,0,0,1,329.09,426.86a5,5,0,0,0,1.29,9.83,4.77,4.77,0,0,0,1.29-.17A153.6,153.6,0,0,0,413.92,382Z"/><path class="cls-1" d="M431.76,271.85c-1.58,6.41-1.16,11.68,1.3,16.58a14.71,14.71,0,0,0,21.86,5.36c4.45-3.21,7.25-7.69,8.82-14.09,2-8-.1-17.63-6.13-28.64a5.06,5.06,0,0,0-3.2-2.46,5,5,0,0,0-4,.7C440,256.27,433.72,263.86,431.76,271.85Zm9.71,2.38c1.07-4.37,4.4-8.81,9.9-13.24,2.84,6.47,3.73,11.95,2.66,16.32-1.25,5.12-3.13,7.05-5,8.38A4.7,4.7,0,0,1,442,284C441,281.93,440.21,279.34,441.47,274.23Z"/><path class="cls-1" d="M449.56,399.74c-10.23-7.27-19.57-10.45-27.73-9.42-6.55.81-11.32,3.08-15,7.12a14.73,14.73,0,0,0,2.78,22.34,21.43,21.43,0,0,0,12.19,3.49,33.25,33.25,0,0,0,4.13-.27c8.17-1,16.44-6.38,24.57-15.95a5,5,0,0,0-.91-7.31Zm-24.89,13.33c-5.23.66-7.7-.41-9.6-1.65a4.72,4.72,0,0,1-.9-7.22c1.54-1.67,3.67-3.31,8.9-4a13.89,13.89,0,0,1,1.84-.11c4.07,0,8.78,1.55,14.06,4.64C433.93,409.73,429.14,412.52,424.67,413.07Z"/><path class="cls-1" d="M396.49,423.53c-4.33-2.77-8.34-3.78-12.63-3.2a12.07,12.07,0,0,0-9.94,15.54c1.26,4.14,3.87,7.36,8.2,10.13,3.62,2.32,8.2,3.48,13.69,3.48a48.55,48.55,0,0,0,8.42-.79,5,5,0,0,0,4-6.21C405.77,433.32,401.83,427,396.49,423.53Zm-9,14.05c-3.25-2.08-3.76-3.74-4-4.64a2.06,2.06,0,0,1,1.73-2.7,6.2,6.2,0,0,1,1-.08A9.2,9.2,0,0,1,391.1,432c1.61,1,3.69,3.15,5.56,7.52C391.9,439.61,389.11,438.6,387.51,437.58Z"/><path class="cls-1" d="M482.82,317.79a5,5,0,0,0-3.23-2.41c-9.23-2.14-16.71-1.64-22.22,1.48-4.48,2.52-7.26,5.6-8.75,9.66a12.07,12.07,0,0,0,9.08,16.06,16.47,16.47,0,0,0,3.18.31,19.31,19.31,0,0,0,9.61-2.81c5.52-3.12,9.8-9.27,12.73-18.28A5,5,0,0,0,482.82,317.79Zm-17.25,13.58c-3.35,1.9-5.06,1.57-6,1.39A2.07,2.07,0,0,1,458,330c.32-.88.92-2.51,4.28-4.41a14,14,0,0,1,6.95-1.49c.71,0,1.47,0,2.29.1C469.42,328.43,467.23,330.43,465.57,331.37Z"/><path class="cls-1" d="M269.77,198.36c2.2.09,8.91.38,14.45,2.91a5,5,0,0,0,6.76-2.8,33,33,0,0,1,4.47-7.87,33,33,0,0,1,4.47,7.87,5,5,0,0,0,6.76,2.8,33.26,33.26,0,0,1,8.73-2.41,32.31,32.31,0,0,1-2.41,8.73,5,5,0,0,0,2.48,6.63,5.08,5.08,0,0,0,2.07.45,5,5,0,0,0,4.55-2.93c2.24-4.91,3.49-10.85,3.81-18.16a5,5,0,0,0-1.46-3.75,5,5,0,0,0-3.76-1.46,55.69,55.69,0,0,0-13.48,2.06,56,56,0,0,0-8.07-11,5,5,0,0,0-7.38,0,55.21,55.21,0,0,0-8.07,11,55.69,55.69,0,0,0-13.49-2.06,5,5,0,1,0-.43,10Z"/><path class="cls-1" d="M335.15,215.45a5,5,0,0,0-7.07-.31c-1.63,1.49-6.58,6-12.28,8.16a5,5,0,0,0-2.87,2.77,5,5,0,0,0,.07,4,32.88,32.88,0,0,1,2.41,8.73,32.84,32.84,0,0,1-8.73-2.4,5,5,0,0,0-6.76,2.8,33,33,0,0,1-4.47,7.87,33,33,0,0,1-4.47-7.87,5,5,0,0,0-6.76-2.8c-5.54,2.52-12.25,2.82-14.45,2.91a5,5,0,1,0,.43,10,55.69,55.69,0,0,0,13.49-2.06,55.21,55.21,0,0,0,8.07,11,5,5,0,0,0,7.37,0,55.68,55.68,0,0,0,8.08-11,55.69,55.69,0,0,0,13.48,2.06,5,5,0,0,0,5.22-5.21,56.07,56.07,0,0,0-2.07-13.48,56,56,0,0,0,11-8.08A5,5,0,0,0,335.15,215.45Z"/><path class="cls-1" d="M278,207.92A5,5,0,0,0,271.6,205c-5.07,1.9-10.15,5.22-15.54,10.16a5,5,0,0,0,0,7.37c5.39,4.94,10.47,8.26,15.54,10.15a4.82,4.82,0,0,0,1.74.32,5,5,0,0,0,1.75-9.68,32.65,32.65,0,0,1-7.87-4.48,33,33,0,0,1,7.87-4.47A5,5,0,0,0,278,207.92Z"/><path class="cls-1" d="M295.45,228.58a9.76,9.76,0,1,0-9.76-9.76A9.75,9.75,0,0,0,295.45,228.58Z"/><path class="cls-1" d="M213.41,247.09,226.27,260a5,5,0,0,0,7.07-7.07L220.48,240c-1.06-17.73-5.74-30.9-14-39.12-8.52-8.53-22.35-13.26-41.09-14.08A5,5,0,0,0,160.2,192c.82,18.75,5.56,32.57,14.08,41.1C182.51,241.35,195.67,246,213.41,247.09Zm-14-39.12h0c5.9,5.9,9.52,15.59,10.78,28.86-13.27-1.26-23-4.87-28.87-10.77s-9.51-15.6-10.77-28.87C183.85,198.45,193.54,202.07,199.44,208Z"/><path class="cls-1" d="M228.39,218.36a5,5,0,0,0,10,0v-18.2c11.79-13.29,17.79-25.91,17.79-37.54,0-12.05-6.43-25.18-19.11-39a5,5,0,0,0-7.37,0c-12.67,13.83-19.1,27-19.1,39,0,11.63,6,24.25,17.79,37.54Zm5-83.77c8.49,10.28,12.79,19.69,12.79,28s-4.3,17.76-12.79,28c-8.49-10.27-12.79-19.68-12.79-28S224.9,144.87,233.39,134.59Z"/><path class="cls-1" d="M318,159.08c9.89,9.89,24.81,16.3,44.35,19a16.8,16.8,0,0,0,2.44.18,17.33,17.33,0,0,0,17.09-19.71c-2.74-19.53-9.14-34.46-19-44.35S338,97.94,318.46,95.2a17.31,17.31,0,0,0-19.54,19.53C301.66,134.27,308.07,149.19,318,159.08Zm-7.06-51.9a7.27,7.27,0,0,1,6.17-2.08c17.34,2.43,30.35,7.88,38.67,16.2s13.77,21.33,16.2,38.67a7.32,7.32,0,0,1-8.24,8.24c-17.34-2.43-30.35-7.88-38.67-16.2s-13.77-21.33-16.2-38.67A7.2,7.2,0,0,1,310.9,107.18Z"/><path class="cls-1" d="M363.08,162.86a5,5,0,0,0,2.41-9.71c-31.14-7.72-43.68-37.4-43.87-37.86a5,5,0,0,0-9.27,3.75C312.92,120.46,326.8,153.86,363.08,162.86Z"/><path class="cls-1" d="M332.13,124c.13.07,12.73,6.83,18.11,18.63a5,5,0,0,0,9.1-4.16c-6.84-15-21.93-23-22.56-23.32a5,5,0,0,0-4.65,8.85Z"/><path class="cls-2" d="M285,45a240.06,240.06,0,0,1,93.42,461.14A240.06,240.06,0,0,1,191.58,63.86,238.42,238.42,0,0,1,285,45m0-10C146.93,35,35,146.93,35,285S146.93,535,285,535,535,423.07,535,285,423.07,35,285,35Z"/><path class="cls-1" d="M412,208.28c-6.83-6.83-7.64-10.44-7-11.12h0c.84-.84,8.69.23,18.08,9.62s10.46,17.25,9.62,18.08L287.25,370.37c-.84.12-3.17-.18-7-2.14l26-26.1a5,5,0,1,0-7.07-7.06l-30.52,30.57a5,5,0,0,0,.67,7.63c6.7,4.69,12.8,7.09,17.59,7.09a9.56,9.56,0,0,0,7-2.63l145.8-145.8c2.05-2.05,5-6.86,1.53-15.9a49.1,49.1,0,0,0-11.16-16.32c-12.12-12.12-25.67-16.17-32.22-9.62L252.87,335.2c-3.31,3.31-4.27,8.26-2.69,13.94a28.89,28.89,0,0,0,7.32,12.27,5,5,0,0,0,7.07,0,5,5,0,0,0,0-7.07,19,19,0,0,1-4.76-7.89c-.53-1.92-.48-3.57.14-4.18L397,205.21a45.89,45.89,0,0,0,7.94,10.14,30,30,0,0,0,9.55,6.77,5,5,0,0,0,3.79-9.25,20.25,20.25,0,0,1-6.27-4.59Z"/></g></svg>