<svg xmlns="http://www.w3.org/2000/svg" viewBox="0 0 570 570"><defs><style>.cls-1{fill:#004751;}.cls-2{fill:#ff9366;}</style></defs><g id="On_Light" data-name="On Light"><path class="cls-1" d="M397.5,175a5,5,0,0,0-5,5v27.93L365,235.43V205a5,5,0,0,0-10,0v30.43l-27.5-27.5V110a5,5,0,0,0-10,0v35.43L290,172.93V135a5,5,0,0,0-10,0v37.93l-27.5-27.5V110a5,5,0,0,0-10,0v97.93L215,235.43V205a5,5,0,0,0-10,0v30.43l-27.5-27.5V180a5,5,0,0,0-10,0V323.85A42.54,42.54,0,0,0,205,366v45.25a5,5,0,0,0,10,0V366a42.53,42.53,0,0,0,32.5-22.22A42.53,42.53,0,0,0,280,366v45.25a5,5,0,0,0,10,0V366a42.53,42.53,0,0,0,32.5-22.22A42.53,42.53,0,0,0,355,366v45.25a5,5,0,0,0,10,0V366a42.54,42.54,0,0,0,37.5-42.19V180A5,5,0,0,0,397.5,175Zm-5,47.07v48.36L365,297.93V249.57ZM355,249.57v48.36l-27.5-27.5V222.07Zm-102.5-27.5,27.5,27.5v48.36l-27.5-27.5Zm37.5,27.5,27.5-27.5v48.36L290,297.93Zm27.5-90v48.36L290,235.43V187.07ZM280,187.07v48.36l-27.5-27.5V159.57Zm-37.5,35v48.36L215,297.93V249.57ZM205,249.57v48.36l-27.5-27.5V222.07Zm-27.5,74.28V284.57l27.5,27.5V356A32.54,32.54,0,0,1,177.5,323.85ZM215,356V312.07l27.5-27.5v39.28A32.54,32.54,0,0,1,215,356Zm37.5-32.11V284.57l27.5,27.5V356A32.54,32.54,0,0,1,252.5,323.85ZM290,356V312.07l27.5-27.5v39.28A32.54,32.54,0,0,1,290,356Zm37.5-32.11V284.57l27.5,27.5V356A32.54,32.54,0,0,1,327.5,323.85ZM365,356V312.07l27.5-27.5v39.28A32.54,32.54,0,0,1,365,356Z"/><circle class="cls-1" cx="322.5" cy="430.25" r="10.57"/><circle class="cls-1" cx="247.5" cy="430.08" r="10.57"/><circle class="cls-1" cx="322.5" cy="400.5" r="10.57"/><path class="cls-1" d="M247.5,389.59a10.57,10.57,0,1,0,10.57,10.57A10.57,10.57,0,0,0,247.5,389.59Z"/><circle class="cls-1" cx="285" cy="435" r="10.57"/><circle class="cls-1" cx="285" cy="465.02" r="10.57"/><path class="cls-2" d="M285,45a240.06,240.06,0,0,1,93.42,461.14A240.06,240.06,0,0,1,191.58,63.86,238.42,238.42,0,0,1,285,45m0-10C146.93,35,35,146.93,35,285S146.93,535,285,535,535,423.07,535,285,423.07,35,285,35Z"/></g></svg>