<svg xmlns="http://www.w3.org/2000/svg" viewBox="0 0 570 570"><defs><style>.cls-1{fill:#004751;}.cls-2{fill:#ff9366;}</style></defs><g id="On_Light" data-name="On Light"><path class="cls-1" d="M272.9,445.7c-.79,0-1.58,0-2.38-.05a61,61,0,0,1-23.74-116.16,32.69,32.69,0,0,1,40.32,10.23h0c8.91,12.13,12.3,16,13.52,17.21s5.1,4.63,17.24,13.55a32.68,32.68,0,0,1,10.23,40.31A61.07,61.07,0,0,1,272.9,445.7ZM260.7,336.35a22.31,22.31,0,0,0-9.62,2.17,51,51,0,1,0,68,68,22.68,22.68,0,0,0-7.12-28c-9.81-7.21-15.82-12-18.39-14.54s-7.31-8.56-14.51-18.36h0A22.76,22.76,0,0,0,260.7,336.35Z"/><path class="cls-1" d="M273,468.83a84.27,84.27,0,0,1,0-168.53c16.51,0,28.75,10.2,32.3,20.27l2.94,8.35a33.32,33.32,0,0,0,7.89,12.49,5,5,0,0,1-7.06,7.09,43.41,43.41,0,0,1-10.26-16.25l-2.94-8.36c-3-8.51-14-13.59-22.87-13.59a74.27,74.27,0,1,0,74.27,74.26c0-8.88-5.09-19.87-13.61-22.88l-8.36-2.94a5,5,0,0,1,3.33-9.43l8.35,2.94c10.08,3.56,20.29,15.8,20.29,32.31A84.36,84.36,0,0,1,273,468.83Z"/><path class="cls-1" d="M269.14,424.6a20,20,0,1,1,20-20A20,20,0,0,1,269.14,424.6Zm0-30a10,10,0,1,0,10,10A10,10,0,0,0,269.14,394.56Z"/><path class="cls-1" d="M179.91,307.8h-.52c-22.24-.23-37.5-15.33-38.83-16.69s-16.45-16.58-16.68-38.82c-.16-15.32,6.71-30,20.42-43.76,26-26,58.26-29.34,77.95-24.27A35,35,0,0,1,236.73,192a5,5,0,1,1-6.63,7.48,25,25,0,0,0-10.34-5.49c-17.14-4.41-45.33-1.39-68.38,21.67-11.71,11.7-17.6,24-17.5,36.47.14,18.54,13.56,31.77,13.69,31.9l.14.14c.12.12,13.34,13.54,31.89,13.68,12.46.1,24.76-5.79,36.47-17.5,25-25,25.56-55.28,22-69.25a5,5,0,0,1,1.3-4.78l28.11-28.11a5,5,0,0,1,7.52.52c1,.9,5.36,1.9,8.19,1.9a16.72,16.72,0,1,0,0-33.43,16.53,16.53,0,0,0-7.38,1.72,5,5,0,0,1-7-2.92A9.83,9.83,0,0,0,249.66,149a12.43,12.43,0,0,0,2.92,7.1,5,5,0,0,1,0,7.07l-17.26,17.27a5,5,0,0,1-7.07-7.07l14.25-14.26A22.32,22.32,0,0,1,239.66,149,19.83,19.83,0,0,1,276,138.11a26.47,26.47,0,0,1,7.12-1,26.72,26.72,0,1,1,0,53.43,32.05,32.05,0,0,1-11.6-2.39l-23.19,23.19c4.12,20.06-.1,50.87-25.23,76C209.59,300.93,195,307.8,179.91,307.8Zm95.13-129h0Z"/><circle class="cls-1" cx="162.61" cy="231.47" r="6.58"/><circle class="cls-1" cx="151.52" cy="245.56" r="6.58"/><circle class="cls-1" cx="169.19" cy="247.98" r="6.58"/><path class="cls-1" d="M353.64,299a21.12,21.12,0,0,1-5.38-.73A35.24,35.24,0,0,1,333,288.94c-10.31-10.32-13.06-23.73-6.24-30.54s20.22-4.07,30.54,6.24,13.05,23.73,6.24,30.54A13.65,13.65,0,0,1,353.64,299Zm-17.1-34.32a3.81,3.81,0,0,0-2.73.84c-2,2-.56,9.59,6.24,16.4a25.51,25.51,0,0,0,10.78,6.68c2.56.68,4.66.52,5.62-.44,2-2,.56-9.59-6.25-16.4C345.24,266.75,339.87,264.63,336.54,264.63Z"/><path class="cls-1" d="M457,153.59a26.47,26.47,0,0,0-7.12,1,19.83,19.83,0,0,0-36.39,10.93,22.21,22.21,0,0,0,2.85,10.1l-8,8a5,5,0,0,0,7.08,7.07l11-11a5,5,0,0,0,0-7.07,12.32,12.32,0,0,1-2.93-7.09,9.83,9.83,0,0,1,19.17-3.09,5,5,0,0,0,7,2.92,16.53,16.53,0,0,1,7.38-1.72A16.72,16.72,0,1,1,457,197c-2.84,0-7.15-1-8.19-1.9a5,5,0,0,0-7.52-.52l-21.87,21.86a5,5,0,0,0-.76,6.1,49.92,49.92,0,0,1,3.36,6.54c9.39,22.82,11.9,57.92-12,81.78q-2,2-4.06,3.7c4.65-19.58-6-47-28.8-69.84-14.46-14.47-32-24.82-48.14-28.41a5,5,0,1,0-2.17,9.77c14.32,3.18,30.08,12.55,43.24,25.71,12.53,12.52,21.45,27,25.13,40.88,3.43,12.87,1.85,23.44-4.45,29.74a5,5,0,0,0-.81,1.09,42.57,42.57,0,0,1-13,2h-.29c-28.17-.18-53.68-26-53.94-26.28l-.1-.1c-.26-.26-26.1-25.77-26.28-53.94-.08-12.31,4.84-23.51,14.62-33.3,23.85-23.85,59-21.34,81.78-11.95a54.14,54.14,0,0,1,16,10.41A5,5,0,0,0,415.6,203a63.58,63.58,0,0,0-19-12.34C371,180.13,331.29,177.49,304,204.82c-11.76,11.76-17.67,25.38-17.55,40.48.23,32,27.48,59.2,29.26,60.95s28.94,29,60.95,29.26H377c14.94,0,28.42-5.9,40.07-17.55,27.33-27.33,24.69-67,14.12-92.66-.59-1.43-1.28-2.9-2.09-4.44l16.23-16.22A32.29,32.29,0,0,0,457,207a26.72,26.72,0,1,0,0-53.44Z"/><path class="cls-2" d="M285,45a240.06,240.06,0,0,1,93.42,461.14A240.06,240.06,0,0,1,191.58,63.86,238.42,238.42,0,0,1,285,45m0-10C146.93,35,35,146.93,35,285S146.93,535,285,535,535,423.07,535,285,423.07,35,285,35Z"/></g></svg>