<svg xmlns="http://www.w3.org/2000/svg" viewBox="0 0 570 570"><defs><style>.cls-1{fill:#004751;}.cls-2{fill:#ff9366;}</style></defs><g id="On_Light" data-name="On Light"><path class="cls-1" d="M235.33,184.51a17.24,17.24,0,0,0,13.13-6.11c4.31-5.06,6.23-10.91,6.23-19,0-10-5.27-20.8-15.67-32.15a5,5,0,0,0-7.38,0C221.24,138.64,216,149.46,216,159.44c0,8.05,1.92,13.9,6.23,19A17.24,17.24,0,0,0,235.33,184.51Zm0-46.17c6.21,7.75,9.36,14.83,9.36,21.1,0,7-1.94,10.25-3.84,12.48a7.18,7.18,0,0,1-11,0c-1.9-2.23-3.84-5.46-3.84-12.48C226,153.17,229.11,146.09,235.33,138.34Z"/><path class="cls-1" d="M235.33,254.17a17.24,17.24,0,0,0,13.13-6.11c4.31-5.06,6.23-10.91,6.23-19,0-10-5.27-20.8-15.67-32.15a5,5,0,0,0-7.38,0C221.24,208.3,216,219.12,216,229.1c0,8.05,1.92,13.9,6.23,19A17.24,17.24,0,0,0,235.33,254.17Zm0-46.17c6.21,7.75,9.36,14.83,9.36,21.1,0,7-1.94,10.24-3.84,12.48a7.18,7.18,0,0,1-11,0c-1.9-2.24-3.84-5.46-3.84-12.48C226,222.83,229.11,215.75,235.33,208Z"/><path class="cls-1" d="M195.74,221.51a17.25,17.25,0,0,0,13.13-6.11c4.31-5.06,6.23-10.91,6.23-19,0-10-5.28-20.8-15.68-32.15a5,5,0,0,0-7.37,0c-10.4,11.35-15.67,22.17-15.67,32.15,0,8.05,1.92,13.9,6.22,19A17.28,17.28,0,0,0,195.74,221.51Zm0-46.17c6.21,7.75,9.36,14.83,9.36,21.1,0,7-1.95,10.25-3.85,12.48a7.17,7.17,0,0,1-11,0c-1.9-2.23-3.84-5.46-3.84-12.48C186.38,190.17,189.52,183.09,195.74,175.34Z"/><path class="cls-1" d="M260.6,215.4a17.17,17.17,0,0,0,26.27,0c4.31-5.06,6.23-10.91,6.23-19,0-10-5.28-20.8-15.68-32.15a5,5,0,0,0-7.37,0c-10.4,11.35-15.67,22.17-15.67,32.15C254.38,204.49,256.3,210.34,260.6,215.4Zm13.14-40.06c6.21,7.75,9.36,14.83,9.36,21.1,0,7-2,10.25-3.85,12.48a7.17,7.17,0,0,1-11,0c-1.9-2.23-3.84-5.46-3.84-12.48C264.38,190.17,267.52,183.09,273.74,175.34Z"/><path class="cls-1" d="M402.58,405.77c0-.17-.06-.33-.09-.49s-.05-.31-.1-.46a5.2,5.2,0,0,0-.37-.92c-4.7-8.84-19-35.71-58.18-35.71-21.64,0-32.45,6.83-39.45,12.78a33,33,0,0,0,0,50.57c7,5.95,17.81,12.79,39.45,12.79,15.84,0,29.35-4.39,40.18-13,9.27-7.42,14.71-16.5,18-22.68a5.11,5.11,0,0,0,.37-.91c.05-.16.06-.31.1-.46s.07-.33.09-.5,0-.32,0-.48S402.59,405.93,402.58,405.77Zm-58.74,28.56c-18.28,0-26.92-5.26-33-10.41a23,23,0,0,1,0-35.33c6.05-5.14,14.69-10.4,33-10.4,28,0,40.86,15.37,48.06,28.07C384.7,419,371.84,434.33,343.84,434.33Z"/><circle class="cls-1" cx="333.5" cy="391.44" r="6.58"/><path class="cls-1" d="M322.41,398.94a6.58,6.58,0,1,0,6.58,6.58A6.59,6.59,0,0,0,322.41,398.94Z"/><path class="cls-1" d="M340.08,401.37a6.58,6.58,0,1,0,6.58,6.58A6.59,6.59,0,0,0,340.08,401.37Z"/><path class="cls-1" d="M437.78,312.74a24.49,24.49,0,0,0-5.24-12.92,24.65,24.65,0,0,0-36.71-2.08,16.73,16.73,0,0,0-4.89,8.7,16.5,16.5,0,0,1-13.11,13.11,16.73,16.73,0,0,0-8.7,4.89,24.64,24.64,0,0,0,15.09,42c.88.07,1.76.1,2.66.1,11.67,0,24.49-5.93,34.78-16.23C432.74,339.19,438.77,325.19,437.78,312.74ZM414.59,343.2c-8.9,8.9-20.24,14-29.48,13.24a14.62,14.62,0,0,1-13.17-13.76,14.66,14.66,0,0,1,4.26-11.17,6.81,6.81,0,0,1,3.64-2.16A27.29,27.29,0,0,0,393,322.53l.28-.27.35-.35.27-.28a27.33,27.33,0,0,0,6.82-13.18,6.85,6.85,0,0,1,2.16-3.64,14.67,14.67,0,0,1,21.84,1.26,14.42,14.42,0,0,1,3.08,7.56C428.56,323,423.49,334.3,414.59,343.2Z"/><path class="cls-1" d="M359.24,279.53a30,30,0,1,0-21.17,8.75A30,30,0,0,0,359.24,279.53ZM324,244.27a19.93,19.93,0,1,1,0,28.19A19.88,19.88,0,0,1,324,244.27Z"/><path class="cls-1" d="M309,329.82a30,30,0,1,0-21.17,8.75A30,30,0,0,0,309,329.82Zm-41.1-21.16a19.93,19.93,0,1,1,5.84,14.09A19.79,19.79,0,0,1,267.85,308.66Z"/><path class="cls-1" d="M216.33,337.78a29.93,29.93,0,1,0,42.33,0A30,30,0,0,0,216.33,337.78ZM251.58,373a19.93,19.93,0,1,1,0-28.19A19.81,19.81,0,0,1,251.58,373Z"/><path class="cls-1" d="M301.11,360.33a45,45,0,0,0,38.11-38.11,13.24,13.24,0,0,1,11.32-11.35c10-1.5,19.24-6.37,27.35-14.48a55,55,0,0,0,3.42-74.15,54.93,54.93,0,0,0-3.24-74.15,5,5,0,1,0-7.07,7.07,44.93,44.93,0,0,1,0,63.54,5,5,0,0,0,0,7.07,45,45,0,0,1-.18,63.54c-6.56,6.57-13.89,10.5-21.79,11.68a23.24,23.24,0,0,0-19.69,19.69,35,35,0,0,1-29.78,29.77c-10.42,1.63-18.13,9.25-19.65,19.43a35.37,35.37,0,0,1-11.45,21.55c-14.75,13.11-49.52,20.5-67.47,3.92-16.57-18-9.19-52.72,3.92-67.47a35.37,35.37,0,0,1,21.55-11.45c10.18-1.52,17.8-9.23,19.43-19.65A35,35,0,0,1,275.66,267a23.25,23.25,0,0,0,19.7-19.69h0v0c1.13-7.58,5-14.62,11.92-21.51a44.94,44.94,0,0,1,45.72-11,5,5,0,0,0,3.07-9.52,54.88,54.88,0,0,0-55.86,13.47c-8.33,8.33-13.29,17.44-14.73,27.06h0a13.26,13.26,0,0,1-11.36,11.35A45,45,0,0,0,236,295.24c-.95,6.09-5.18,10.43-11,11.3a45.25,45.25,0,0,0-27.56,14.7c-8.45,9.51-14.32,24.15-15.71,39.18-1.56,17,2.72,31.86,12.08,41.88l.24.24c8.66,8.09,21,12.39,35.12,12.39,2.21,0,4.47-.1,6.76-.31,15-1.39,29.67-7.26,39.18-15.71a45.25,45.25,0,0,0,14.7-27.56C290.68,365.51,295,361.29,301.11,360.33Z"/><path class="cls-1" d="M199.58,291.58a25.36,25.36,0,0,0,.08-35.82h0l-.2-.2a25.06,25.06,0,0,0-17.83-7.4h-.09a25.34,25.34,0,0,0-17.9,7.47,22.73,22.73,0,0,0-6.7,12.63c-1.78,8.25-4.48,10.76-12.92,12.15a23.48,23.48,0,0,0-13.25,7,26.21,26.21,0,1,0,37.07,37.07,23.36,23.36,0,0,0,7-13.19c1.4-8.51,3.91-11.2,12.17-13A22.63,22.63,0,0,0,199.58,291.58ZM185,288.48c-12.38,2.63-18,8.57-20.09,21.25a13.78,13.78,0,0,1-4.16,7.66,16.21,16.21,0,1,1-22.93-22.93,13.78,13.78,0,0,1,7.73-4.17c12.61-2.07,18.54-7.7,21.18-20.09,0-.1,0-.2,0-.3a12.9,12.9,0,0,1,3.92-7.2,15.36,15.36,0,0,1,10.85-4.54h.05a15.14,15.14,0,0,1,10.78,4.48l.2.2a15.09,15.09,0,0,1,4.46,10.81,15.3,15.3,0,0,1-4.54,10.86,12.87,12.87,0,0,1-7.2,3.91Z"/><circle class="cls-1" cx="134.77" cy="258.59" r="10.57"/><circle class="cls-1" cx="149.45" cy="305.75" r="10.57"/><path class="cls-2" d="M285,45a240.06,240.06,0,0,1,93.42,461.14A240.06,240.06,0,0,1,191.58,63.86,238.42,238.42,0,0,1,285,45m0-10C146.93,35,35,146.93,35,285S146.93,535,285,535,535,423.07,535,285,423.07,35,285,35Z"/></g></svg>