<svg xmlns="http://www.w3.org/2000/svg" viewBox="0 0 570 570"><defs><style>.cls-1{fill:#004751;}.cls-2{fill:#ff9366;}</style></defs><g id="On_Light" data-name="On Light"><path class="cls-1" d="M219.45,355.23c-19.52,0-34.24-9-34.24-20.81s14.72-20.8,34.24-20.8c10.39,0,20,2.68,26.45,7.36,5,3.66,7.79,8.43,7.79,13.44C253.69,346.28,239,355.23,219.45,355.23Zm0-31.61c-15,0-24.24,6.29-24.24,10.8s9.22,10.81,24.24,10.81,24.24-6.29,24.24-10.81c0-2.33-2.31-4.36-3.68-5.36C235.33,325.65,227.65,323.62,219.45,323.62Z"/><path class="cls-1" d="M278.33,334.31c0-1.79-.43-12.24-9.67-21.78-10.44-10.77-27.72-16.24-51.36-16.24-17,0-32.52,2.79-46.17,8.29-14.47,5.83-22.2,12.86-25.52,16.53a22.63,22.63,0,0,0-3.43,5c-6.06,10.56-5.68,23.12,1.07,34.56,10.53,17.84,34.63,38,68.57,38,1.3,0,2.61,0,3.94-.09,19.91-.91,35.55-7.44,46.47-19.42C279,360.82,278.41,336.4,278.33,334.31Zm-23.48,38.1c-9.07,9.95-22.38,15.39-39.55,16.17-1.17.05-2.32.08-3.47.08-29.75,0-50.8-17.58-60-33.12a30,30,0,0,1-1.79-3.53,76.77,76.77,0,0,0,21.06,12.25c13.65,5.5,29.18,8.29,46.17,8.29,2.95,0,5.85-.08,8.6-.26a5,5,0,0,0-.62-10c-2.55.16-5.23.24-8,.24C173.75,362.55,155,343.23,153,341c-3.85-4.26-3.85-8.95,0-13.21,2-2.21,20.72-21.53,64.27-21.53,20.36,0,35.57,4.49,44,13,7.07,7.15,7.07,14.72,7.07,15a1.71,1.71,0,0,0,0,.32c0,.17.25,16.47-22.65,24.09a5,5,0,0,0,3.16,9.49,54.63,54.63,0,0,0,13.24-6.35A47.32,47.32,0,0,1,254.85,372.41Z"/><path class="cls-1" d="M364.51,397.07c-20.11,0-39.08-5.28-53.42-14.87-15-10-23.2-23.51-23.2-38s8.24-28,23.2-38c14.34-9.59,33.31-14.87,53.42-14.87,10.86,0,24.68,4,29.35,12.91l2.66,5.05a19.44,19.44,0,0,0,6.55,6.85,34.82,34.82,0,0,0,11.35,4.78l7.55,1.78c11.1,2.62,19.15,11.67,19.15,21.53,0,14.52-8.23,28-23.19,38C403.59,391.79,384.62,397.07,364.51,397.07Zm0-95.8c-36.74,0-66.62,19.25-66.62,42.9s29.88,42.9,66.62,42.9,66.61-19.24,66.61-42.9c0-4.47-4.28-10.11-11.45-11.8l-7.54-1.78a44,44,0,0,1-14.62-6.2,29.34,29.34,0,0,1-9.84-10.5L385,308.84C383.09,305.19,374.39,301.27,364.51,301.27Z"/><path class="cls-1" d="M353.36,367.51c-21.87,0-39-12.18-39-27.73s17.12-27.74,39-27.74,39,12.19,39,27.74S375.22,367.51,353.36,367.51Zm0-45.47c-15.72,0-29,8.12-29,17.74s13.27,17.73,29,17.73,29-8.12,29-17.73S369.07,322,353.36,322Z"/><path class="cls-1" d="M364.51,397.07c-20.11,0-39.08-5.28-53.42-14.87-15-10-23.2-23.51-23.2-38s8.24-28,23.2-38c14.34-9.59,33.31-14.87,53.42-14.87,10.86,0,24.68,4,29.35,12.91l2.66,5.05a19.44,19.44,0,0,0,6.55,6.85,34.82,34.82,0,0,0,11.35,4.78l7.55,1.78c11.1,2.62,19.15,11.67,19.15,21.53,0,14.52-8.23,28-23.19,38C403.59,391.79,384.62,397.07,364.51,397.07Zm0-95.8c-36.74,0-66.62,19.25-66.62,42.9s29.88,42.9,66.62,42.9,66.61-19.24,66.61-42.9c0-4.47-4.28-10.11-11.45-11.8l-7.54-1.78a44,44,0,0,1-14.62-6.2,29.34,29.34,0,0,1-9.84-10.5L385,308.84C383.09,305.19,374.39,301.27,364.51,301.27Z"/><path class="cls-1" d="M353.36,367.51c-21.87,0-39-12.18-39-27.73s17.12-27.74,39-27.74,39,12.19,39,27.74S375.22,367.51,353.36,367.51Zm0-45.47c-15.72,0-29,8.12-29,17.74s13.27,17.73,29,17.73,29-8.12,29-17.73S369.07,322,353.36,322Z"/><path class="cls-1" d="M281,299.35h-.46c-3,0-24.09-.57-39.82-16-11.17-10.93-16.83-26.52-16.83-46.32,0-37.59,20.87-63.25,38.74-73.8a35.67,35.67,0,0,1,36.28,0c17.87,10.55,38.74,36.21,38.74,73.8,0,19.8-5.66,35.39-16.82,46.32C305.08,298.78,284,299.35,281,299.35Zm-.14-10c.18,0,19.5.14,33-13.2,9.13-9,13.75-22.14,13.75-39.1,0-33.37-18.22-56-33.82-65.19a25.67,25.67,0,0,0-26.12,0c-15.6,9.21-33.82,31.82-33.82,65.19,0,17,4.62,30.12,13.75,39.1,13.54,13.34,32.85,13.21,33,13.2Z"/><path class="cls-1" d="M254.39,216.57a5,5,0,0,1-4.81-6.36c3-10.5,9.43-20.22,17.32-26a5,5,0,1,1,5.9,8.07,38.89,38.89,0,0,0-13.6,20.63A5,5,0,0,1,254.39,216.57Z"/><path class="cls-2" d="M285,540A255,255,0,0,1,104.69,104.69,255,255,0,1,1,465.31,465.31,253.3,253.3,0,0,1,285,540Zm0-500A245,245,0,0,0,111.76,458.24,245,245,0,1,0,458.24,111.76,243.37,243.37,0,0,0,285,40Z"/></g></svg>