<svg id="Layer_1" data-name="Layer 1" xmlns="http://www.w3.org/2000/svg" viewBox="0 0 705.94 355.32"><defs><style>.cls-1{fill:#fff;}</style></defs><path class="cls-1" d="M357.44,149.49v-34.6L334.2,126V214a38.56,38.56,0,0,0,38.39,38.39,58.24,58.24,0,0,0,19.81-3.89l2.83-1-13.89-19.63-1.53.37a29.69,29.69,0,0,1-6.89.84c-8.39,0-15.48-6.88-15.48-15v-44h27.24V149.49Zm194.43-2.81a48.92,48.92,0,0,1,48.4,48.86v54.11H577V195.54a25.61,25.61,0,1,0-51.22,0v54.11H502.55v-144h23v39a43.51,43.51,0,0,1-.79,8.25,2.77,2.77,0,0,0,4.47,2.68C535.4,150.63,543.15,146.68,551.87,146.68ZM203.39,195.54v54.11H180.14V195.54a25.62,25.62,0,1,0-51.23,0v54.11H105.67V195.54a48.86,48.86,0,0,1,97.72,0ZM238,155a12.87,12.87,0,1,1-12.86-12.86A12.87,12.87,0,0,1,238,155Zm31.69-8.34c-7.6,0-16,4.36-18.39,11.28l-2,5.57a25.73,25.73,0,0,1-15.62,15.63l-5.57,2c-6.92,2.44-11.3,10.79-11.3,18.39a52.84,52.84,0,1,0,52.84-52.83Zm0,82.42a29.59,29.59,0,1,1,29.58-29.59A29.59,29.59,0,0,1,269.66,229.1Zm220.93-4.7-1.17,2a53.23,53.23,0,0,1-16.71,17.43,52.83,52.83,0,1,1-.24-88.77,53.43,53.43,0,0,1,16.65,17.1l1.33,2.19-21,10-1.13-1.64a29.6,29.6,0,1,0,.18,33.26l1.12-1.64Z"/></svg>