<svg xmlns="http://www.w3.org/2000/svg" viewBox="0 0 570 570"><defs><style>.cls-1{fill:#ff9366;}.cls-2{fill:#004751;}</style></defs><g id="On_Light" data-name="On Light"><path class="cls-1" d="M239.83,154.21h0A26.82,26.82,0,0,0,221,146.54a8.46,8.46,0,0,0-7.61,4.7l-1.6,3.2a20.75,20.75,0,0,1-9.25,9.25l-3.18,1.59a8.47,8.47,0,0,0-4.71,7.61,26.79,26.79,0,0,0,8,19.13,26.31,26.31,0,0,0,18.65,7.73h.15a26.54,26.54,0,0,0,18.44-45.54Z"/><path class="cls-1" d="M369.74,154.21h0a26.82,26.82,0,0,0-18.85-7.67,8.46,8.46,0,0,0-7.61,4.7l-1.6,3.2a20.75,20.75,0,0,1-9.25,9.25l-3.18,1.59a8.47,8.47,0,0,0-4.71,7.61,26.79,26.79,0,0,0,8,19.13,26.31,26.31,0,0,0,18.65,7.73h.16a26.54,26.54,0,0,0,18.43-45.54Z"/><path class="cls-1" d="M239.83,281.18h0A26.86,26.86,0,0,0,221,273.52a8.46,8.46,0,0,0-7.61,4.7l-1.6,3.2a20.73,20.73,0,0,1-9.25,9.24l-3.18,1.6a8.46,8.46,0,0,0-4.71,7.61,26.79,26.79,0,0,0,8,19.13,26.3,26.3,0,0,0,18.65,7.72h.15a26.54,26.54,0,0,0,18.44-45.54Z"/><path class="cls-2" d="M437,385.78H133a5,5,0,0,1-5-5v-63h0V93a5,5,0,0,1,5-5H437a5,5,0,0,1,5,5v287.8A5,5,0,0,1,437,385.78ZM138,375.78H432V98H138Z"/><path class="cls-2" d="M221.24,224.17a51,51,0,1,1,51-51A51.09,51.09,0,0,1,221.24,224.17Zm0-92a41,41,0,1,0,41,41A41.07,41.07,0,0,0,221.24,132.12Z"/><path class="cls-2" d="M221.24,351.15a51,51,0,1,1,51-51A51.09,51.09,0,0,1,221.24,351.15Zm0-92a41,41,0,1,0,41,41A41.07,41.07,0,0,0,221.24,259.1Z"/><path class="cls-2" d="M351.15,224.17a51,51,0,1,1,51-51A51.09,51.09,0,0,1,351.15,224.17Zm0-92a41,41,0,1,0,41,41A41.07,41.07,0,0,0,351.15,132.12Z"/><path class="cls-2" d="M351.15,351.15a51,51,0,1,1,51-51A51.09,51.09,0,0,1,351.15,351.15Zm0-92a41,41,0,1,0,41,41A41.07,41.07,0,0,0,351.15,259.1Z"/><circle class="cls-1" cx="305.36" cy="445.67" r="6.76"/><path class="cls-1" d="M282.64,456.76H177a11.09,11.09,0,1,1,0-22.18H282.64a11.09,11.09,0,1,1,0,22.18Z"/><path class="cls-1" d="M390.18,456.76H328.07a11.09,11.09,0,1,1,0-22.18h62.11a11.09,11.09,0,0,1,0,22.18Z"/><path class="cls-2" d="M437,482H133a5,5,0,0,1-5-5V412.45a5,5,0,0,1,5-5H437a5,5,0,0,1,5,5V477A5,5,0,0,1,437,482ZM138,472H432V417.45H138Z"/></g></svg>