<svg xmlns="http://www.w3.org/2000/svg" viewBox="0 0 570 570"><defs><style>.cls-1{fill:#004751;}.cls-2{fill:#ff9366;}</style></defs><g id="On_Light" data-name="On Light"><path class="cls-1" d="M489.62,382.08a4.32,4.32,0,0,0,.16-.51c0-.14.09-.27.12-.42a4.59,4.59,0,0,0,.1-1v-235a5,5,0,0,0-5-5H129.64a4.66,4.66,0,0,0-1,.1c-.15,0-.28.08-.43.12a4.16,4.16,0,0,0-.5.16c-.17.07-.32.17-.48.25s-.26.13-.38.21a5.1,5.1,0,0,0-.77.62L81.46,186.29A5,5,0,0,0,80,189.83v235a5,5,0,0,0,.1,1,3.66,3.66,0,0,0,.13.44c0,.16.09.33.15.49a4.74,4.74,0,0,0,.26.5c.07.12.12.25.2.36A5,5,0,0,0,82.23,429c.12.08.24.13.37.2a4.59,4.59,0,0,0,.49.26,4.16,4.16,0,0,0,.5.16c.14,0,.28.09.43.12a4.59,4.59,0,0,0,1,.1H440.36a5,5,0,0,0,3.53-1.46l44.64-44.64a5.17,5.17,0,0,0,.63-.77c.08-.12.14-.25.21-.38S489.55,382.25,489.62,382.08Zm-355-6.91v-225H472.16c-2.64,8.26-9.24,23.4-24,32.87s-34.44,11.08-58.25,4.68c-36.13-9.71-67.49-2.63-86,19.42-18.08,21.48-21,54.22-7.49,83.39,8,17.34,8.28,37.08.7,58.68a121.18,121.18,0,0,1-12.85,25.94Zm170.79-88.82c-11.9-25.67-9.52-54.23,6.07-72.75,9.37-11.14,31.68-28.06,75.8-16.2,26.64,7.15,48.92,5.16,66.23-5.92C468.34,182,476.11,168,480,158V375.17H296C305.34,359.38,322.29,322.69,305.43,286.35ZM124.64,157.26V378.1L90,412.74V191.9ZM438.29,419.81H97.07l34.64-34.64H472.93Z"/><path class="cls-2" d="M424.23,287.92a13.06,13.06,0,0,0-12.29,8.7l-1.27,3.62a14.73,14.73,0,0,1-9.11,9.06l-3.49,1.21a13.12,13.12,0,0,0-8.82,12.39,35.45,35.45,0,0,0,10.59,25.32,34.86,34.86,0,0,0,24.69,10.26h.27a35.29,35.29,0,0,0,35-35.65A35.55,35.55,0,0,0,424.23,287.92Zm-16.6,35.28a16.63,16.63,0,1,1,16.63,16.63A16.65,16.65,0,0,1,407.63,323.2Z"/><path class="cls-2" d="M396.29,285a9.92,9.92,0,1,0,9.92,9.92A9.93,9.93,0,0,0,396.29,285Z"/></g></svg>