<svg xmlns="http://www.w3.org/2000/svg" viewBox="0 0 570 570"><defs><style>.cls-1{fill:#004751;}.cls-2{fill:#ff9366;}</style></defs><g id="On_Light" data-name="On Light"><path class="cls-1" d="M463.26,112.79H106.74A25.76,25.76,0,0,0,81,138.52v228a25.75,25.75,0,0,0,25.73,25.72H229v36.6a5,5,0,0,0,5,5h131.2a6.71,6.71,0,0,1,0,13.42H204.84a6.71,6.71,0,0,1,0-13.42h9.1a5,5,0,0,0,0-10h-9.1a16.71,16.71,0,0,0,0,33.42H365.16a16.71,16.71,0,0,0,0-33.42h-19.1v-31.6h117.2A25.75,25.75,0,0,0,489,366.47V138.52A25.76,25.76,0,0,0,463.26,112.79ZM479,366.47a15.74,15.74,0,0,1-15.73,15.72H254.58a5,5,0,1,0,0,10h81.48v31.6H239v-36.6a5,5,0,0,0-5-5H106.74A15.74,15.74,0,0,1,91,366.47V138.52a15.75,15.75,0,0,1,15.73-15.73H463.26A15.75,15.75,0,0,1,479,138.52Z"/><path class="cls-2" d="M209.38,315.32a47.35,47.35,0,0,1,0-94.69,9.41,9.41,0,0,1,0,18.82,28.51,28.51,0,1,0,20.17,8.35,9.4,9.4,0,1,1,13.3-13.3,47.34,47.34,0,0,1-33.47,80.82Z"/><path class="cls-2" d="M312.16,319.27a9.41,9.41,0,0,1-9.41-9.41V277.33a9.41,9.41,0,0,1,18.82,0v32.53A9.41,9.41,0,0,1,312.16,319.27Z"/><path class="cls-2" d="M341,319.27a9.41,9.41,0,0,1-9.41-9.41V255a9.41,9.41,0,0,1,18.82,0v54.82A9.42,9.42,0,0,1,341,319.27Z"/><path class="cls-2" d="M369.76,319.27a9.41,9.41,0,0,1-9.41-9.41V230a9.41,9.41,0,0,1,18.82,0v79.82A9.42,9.42,0,0,1,369.76,319.27Z"/><path class="cls-2" d="M398.56,319.27a9.41,9.41,0,0,1-9.41-9.41v-43a9.41,9.41,0,1,1,18.81,0v43A9.41,9.41,0,0,1,398.56,319.27Z"/><path class="cls-1" d="M129.55,143.42a7.45,7.45,0,0,0-7,5l-.73,2.07a8.39,8.39,0,0,1-5.2,5.17l-2,.69a7.5,7.5,0,0,0-5,7.07,20.23,20.23,0,0,0,6,14.46,19.9,19.9,0,0,0,14.1,5.85h.15a20.13,20.13,0,0,0,20-20.35A20.28,20.28,0,0,0,129.55,143.42Zm-9.47,20.13a9.49,9.49,0,1,1,9.49,9.5A9.5,9.5,0,0,1,120.08,163.55Z"/><path class="cls-1" d="M113.6,141.77a5.67,5.67,0,1,0,5.67,5.66A5.67,5.67,0,0,0,113.6,141.77Z"/><circle class="cls-1" cx="448.95" cy="148.32" r="8.63"/><path class="cls-1" d="M421.62,153.32H362.56a5,5,0,0,1,0-10h59.06a5,5,0,0,1,0,10Z"/></g></svg>