<svg xmlns="http://www.w3.org/2000/svg" viewBox="0 0 570 570"><defs><style>.cls-1{fill:#004751;}.cls-2{fill:#ff9366;}</style></defs><g id="On_Light" data-name="On Light"><path class="cls-1" d="M434.61,85.22a5,5,0,0,0-5-5H140.39a5,5,0,0,0-5,5V484.78a5,5,0,0,0,5,5H429.61a5,5,0,0,0,5-5ZM201,479.78V251.16H375.19V479.78Zm184.21,0V246.16a5,5,0,0,0-5-5H196a5,5,0,0,0-5,5V479.78H145.39V90.22H424.61V479.78Z"/><path class="cls-2" d="M343.06,398.92a9,9,0,0,1-9-9V285a9,9,0,0,1,18,0V389.92A9,9,0,0,1,343.06,398.92Z"/><path class="cls-2" d="M312.36,346.53a9,9,0,0,1-9-9V285a9,9,0,0,1,18,0v52.53A9,9,0,0,1,312.36,346.53Z"/><path class="cls-2" d="M260.79,346.46a9,9,0,0,1-9-9V285a9,9,0,0,1,18,0v52.46A9,9,0,0,1,260.79,346.46Z"/><path class="cls-2" d="M230.85,346.46a9,9,0,0,1-9-9V285a9,9,0,0,1,18,0v52.46A9,9,0,0,1,230.85,346.46Z"/><path class="cls-1" d="M400.38,155.36h-3a6,6,0,0,1,0-12h3a6,6,0,0,1,0,12Zm-33,0h-3a6,6,0,0,1,0-12h3a6,6,0,0,1,0,12Zm-33,0h-3a6,6,0,0,1,0-12h3a6,6,0,0,1,0,12Zm-33,0h-3a6,6,0,0,1,0-12h3a6,6,0,0,1,0,12Zm-33,0h-3a6,6,0,0,1,0-12h3a6,6,0,0,1,0,12Zm-33,0h-3a6,6,0,0,1,0-12h3a6,6,0,0,1,0,12Zm-33,0h-3a6,6,0,0,1,0-12h3a6,6,0,0,1,0,12Zm-33,0h-3a6,6,0,0,1,0-12h3a6,6,0,0,1,0,12Z"/></g></svg>