<svg xmlns="http://www.w3.org/2000/svg" viewBox="0 0 570 570"><defs><style>.cls-1{fill:#004751;}.cls-2{fill:#ff9366;}</style></defs><g id="On_Light" data-name="On Light"><path class="cls-1" d="M285,421.33A100.19,100.19,0,0,1,184.92,321.26c0-32.11,12.46-66.63,37-102.62,20.13-29.5,43.66-53.27,59.61-68.58a5,5,0,0,1,6.92,0c16,15.31,39.48,39.08,59.61,68.58,24.55,36,37,70.51,37,102.62A100.19,100.19,0,0,1,285,421.33Zm0-260.71C225.23,218.94,194.92,273,194.92,321.26a90.08,90.08,0,0,0,180.16,0C375.08,273,344.77,218.94,285,160.62Z"/><path class="cls-2" d="M322.73,282.82h0a54.46,54.46,0,0,0-38.24-15.56A17.17,17.17,0,0,0,269,276.81l-3.24,6.48A42.25,42.25,0,0,1,247,302.06l-6.47,3.24A17.17,17.17,0,0,0,231,320.75a54.42,54.42,0,0,0,16.15,38.83A53.38,53.38,0,0,0,285,375.25h.31a53.86,53.86,0,0,0,37.41-92.43Z"/></g></svg>