<svg xmlns="http://www.w3.org/2000/svg" viewBox="0 0 570 570"><defs><style>.cls-1{fill:#004751;}.cls-2{fill:#ff9366;}</style></defs><g id="On_Light" data-name="On Light"><path class="cls-1" d="M308.83,349.66a24.48,24.48,0,0,0-7.16-12.35,42.18,42.18,0,0,0,25.5-38.7,5,5,0,0,0-10,0,32.14,32.14,0,0,1-64.27,0,5,5,0,0,0-10,0,42.18,42.18,0,0,0,25.49,38.7,24.39,24.39,0,0,0-7.15,12.35,42.19,42.19,0,0,0-55,3.94,5,5,0,0,0,7.07,7.07,32.13,32.13,0,1,1,45.45,45.44,5,5,0,1,0,7.07,7.07,41.82,41.82,0,0,0,12.34-29.79,41.18,41.18,0,0,0-.29-4.86,24.47,24.47,0,0,0,14.38,0,43.44,43.44,0,0,0-.28,4.86,41.82,41.82,0,0,0,12.34,29.79,5,5,0,0,0,7.07,0,5,5,0,0,0,0-7.07,32.13,32.13,0,0,1,45.44-45.44,5,5,0,0,0,7.07-7.07A42.18,42.18,0,0,0,308.83,349.66ZM285,369.61a14.44,14.44,0,1,1,14.43-14.43A14.45,14.45,0,0,1,285,369.61Z"/><path class="cls-1" d="M398.49,166.42h-8.8V85a5,5,0,0,0-5-5H185.33a5,5,0,0,0-5,5v81.42h-8.82a5,5,0,0,0-5,5v30.92h-6.8a18.16,18.16,0,0,0,0,36.31h6.8V485a5,5,0,0,0,5,5h227a5,5,0,0,0,5-5V171.42A5,5,0,0,0,398.49,166.42ZM190.33,90H379.69v76.42h-25.3a33.65,33.65,0,1,0-57.95,0H273.56a33.65,33.65,0,1,0-58,0H190.33Zm158.72,59.36a23.72,23.72,0,0,1-7.28,17.06H309.06a23.64,23.64,0,1,1,40-17.06Zm-80.83,0a23.51,23.51,0,0,1-6.34,16.1,5.23,5.23,0,0,0-.68,1h-33a23.64,23.64,0,1,1,40-17.06ZM151.56,220.49a8.16,8.16,0,0,1,8.15-8.15H358.65v16.31H159.71A8.16,8.16,0,0,1,151.56,220.49ZM393.49,480h-217V238.65H363.65a5,5,0,0,0,5-5V207.34a5,5,0,0,0-5-5H176.51V176.42h217Z"/><circle class="cls-2" cx="244.58" cy="149.36" r="10.41"/><circle class="cls-2" cx="325.41" cy="149.36" r="10.41"/></g></svg>