<svg xmlns="http://www.w3.org/2000/svg" viewBox="0 0 570 570"><defs><style>.cls-1{fill:#004751;}.cls-2{fill:#ff9366;}</style></defs><g id="On_Light" data-name="On Light"><path class="cls-1" d="M437,466.18H133a5,5,0,0,1-5-5V108.82a5,5,0,0,1,5-5H437a5,5,0,0,1,5,5V461.18A5,5,0,0,1,437,466.18ZM138,456.18H432V113.82H138Z"/><path class="cls-1" d="M419,402.62h-3a6,6,0,0,1,0-12h3a6,6,0,0,1,0,12Zm-33,0h-3a6,6,0,0,1,0-12h3a6,6,0,0,1,0,12Zm-33,0h-3a6,6,0,0,1,0-12h3a6,6,0,0,1,0,12Zm-33,0h-3a6,6,0,0,1,0-12h3a6,6,0,0,1,0,12Zm-33,0h-3a6,6,0,0,1,0-12h3a6,6,0,0,1,0,12Zm-33,0h-3a6,6,0,0,1,0-12h3a6,6,0,1,1,0,12Zm-33,0h-3a6,6,0,0,1,0-12h3a6,6,0,1,1,0,12Zm-33,0h-3a6,6,0,0,1,0-12h3a6,6,0,1,1,0,12Zm-33,0h-3a6,6,0,0,1,0-12h3a6,6,0,1,1,0,12Z"/><path class="cls-1" d="M221.49,240a51,51,0,1,1,51-51A51.08,51.08,0,0,1,221.49,240Zm0-92.05a41,41,0,1,0,41,41A41.08,41.08,0,0,0,221.49,148Z"/><path class="cls-1" d="M221.49,366.25a51,51,0,1,1,51-51A51.08,51.08,0,0,1,221.49,366.25Zm0-92.05a41,41,0,1,0,41,41A41.08,41.08,0,0,0,221.49,274.2Z"/><path class="cls-1" d="M351.75,240a51,51,0,1,1,51-51A51.08,51.08,0,0,1,351.75,240Zm0-92.05a41,41,0,1,0,41,41A41.07,41.07,0,0,0,351.75,148Z"/><path class="cls-1" d="M351.75,366.25a51,51,0,1,1,51-51A51.08,51.08,0,0,1,351.75,366.25Zm0-92.05a41,41,0,1,0,41,41A41.07,41.07,0,0,0,351.75,274.2Z"/><circle class="cls-2" cx="305.36" cy="429.83" r="6.76"/><path class="cls-2" d="M282.64,440.93H177a11.1,11.1,0,1,1,0-22.19H282.64a11.1,11.1,0,1,1,0,22.19Z"/><path class="cls-2" d="M390.18,440.93H328.07a11.1,11.1,0,0,1,0-22.19h62.11a11.1,11.1,0,0,1,0,22.19Z"/></g></svg>