<svg xmlns="http://www.w3.org/2000/svg" viewBox="0 0 570 570"><defs><style>.cls-1{fill:#ff9366;}.cls-2{fill:#004751;}</style></defs><g id="On_Light" data-name="On Light"><circle class="cls-1" cx="300.49" cy="266.19" r="6.38"/><path class="cls-1" d="M279.06,276.65H209.45a10.47,10.47,0,0,1,0-20.93h69.61a10.47,10.47,0,1,1,0,20.93Z"/><path class="cls-1" d="M360.55,276.65H321.92a10.47,10.47,0,1,1,0-20.93h38.63a10.47,10.47,0,0,1,0,20.93Z"/><path class="cls-2" d="M129.06,142.59a7.46,7.46,0,0,0-7,5l-.73,2.07a8.39,8.39,0,0,1-5.2,5.17l-2,.69a7.5,7.5,0,0,0-5,7.07,20.25,20.25,0,0,0,6,14.46,19.9,19.9,0,0,0,14.1,5.85h.15a20.14,20.14,0,0,0,20-20.35A20.29,20.29,0,0,0,129.06,142.59Zm-9.47,20.14a9.49,9.49,0,1,1,9.49,9.49A9.5,9.5,0,0,1,119.59,162.73Z"/><path class="cls-2" d="M113.11,141a5.66,5.66,0,1,0,5.66,5.66A5.67,5.67,0,0,0,113.11,141Z"/><path class="cls-2" d="M393.82,301.72H176.18a5,5,0,0,1-5-5V235.65a5,5,0,0,1,5-5H393.82a5,5,0,0,1,5,5v61.07A5,5,0,0,1,393.82,301.72Zm-212.64-10H388.82V240.65H181.18Z"/><path class="cls-2" d="M463.26,112.79H106.74A25.76,25.76,0,0,0,81,138.52v228a25.75,25.75,0,0,0,25.73,25.72H229v36.6a5,5,0,0,0,5,5h131.2a6.71,6.71,0,0,1,0,13.42H204.84a6.71,6.71,0,0,1,0-13.42h9.1a5,5,0,0,0,0-10h-9.1a16.71,16.71,0,0,0,0,33.42H365.16a16.71,16.71,0,0,0,0-33.42h-19.1v-31.6h117.2A25.75,25.75,0,0,0,489,366.47V138.52A25.76,25.76,0,0,0,463.26,112.79ZM479,366.47a15.74,15.74,0,0,1-15.73,15.72H254.58a5,5,0,1,0,0,10h81.48v31.6H239v-36.6a5,5,0,0,0-5-5H106.74A15.74,15.74,0,0,1,91,366.47V138.52a15.75,15.75,0,0,1,15.73-15.73H463.26A15.75,15.75,0,0,1,479,138.52Z"/></g></svg>