<?xml version="1.0" encoding="UTF-8"?>
<!DOCTYPE svg PUBLIC "-//W3C//DTD SVG 1.1//EN" "http://www.w3.org/Graphics/SVG/1.1/DTD/svg11.dtd">
<!-- Creator: CorelDRAW -->
<svg xmlns="http://www.w3.org/2000/svg" xml:space="preserve" width="2048px" height="2048px" style="shape-rendering:geometricPrecision; text-rendering:geometricPrecision; image-rendering:optimizeQuality; fill-rule:evenodd; clip-rule:evenodd"
viewBox="0 0 2048 2048"
 xmlns:xlink="http://www.w3.org/1999/xlink">
 <defs>
  <style type="text/css">
   <![CDATA[
    .fil1 {fill:none}
    .fil0 {fill:#212121;fill-rule:nonzero}
   ]]>
  </style>
 </defs>
 <g id="Layer_x0020_1">
  <metadata id="CorelCorpID_0Corel-Layer"/>
  <polygon class="fil0" points="351.911,255.999 351.911,1792 287.909,1792 287.909,255.999 "/>
  <polygon class="fil0" points="480.082,255.999 480.082,1600 416.08,1600 416.08,255.999 "/>
  <polygon class="fil0" points="608.083,255.999 608.083,1600 544.081,1600 544.081,255.999 "/>
  <polygon class="fil0" points="736.084,255.999 736.084,1600 672.082,1600 672.082,255.999 "/>
  <polygon class="fil0" points="864.085,255.999 864.085,1600 800.083,1600 800.083,255.999 "/>
  <polygon class="fil0" points="992.085,255.999 992.085,1600 928.084,1600 928.084,255.999 "/>
  <polygon class="fil0" points="1120.09,255.999 1120.09,1600 1056.08,1600 1056.08,255.999 "/>
  <polygon class="fil0" points="1248.09,255.999 1248.09,1600 1184.09,1600 1184.09,255.999 "/>
  <polygon class="fil0" points="1376.09,255.999 1376.09,1600 1312.09,1600 1312.09,255.999 "/>
  <polygon class="fil0" points="1504.09,255.999 1504.09,1600 1440.09,1600 1440.09,255.999 "/>
  <polygon class="fil0" points="1632.09,255.999 1632.09,1600 1568.09,1600 1568.09,255.999 "/>
  <polygon class="fil0" points="1760.09,255.999 1760.09,1792 1696.09,1792 1696.09,255.999 "/>
  <path class="fil0" d="M445.028 1718.09l-24.7028 -4.46457c2.77795,-9.95434 7.54016,-17.2961 14.3197,-22.0914 6.8126,-4.76103 16.865,-7.1752 30.2256,-7.1752 12.1701,0 21.1984,1.45512 27.1512,4.33229 5.91969,2.87599 10.1197,6.51378 12.5339,10.9453 2.41418,4.4315 3.6378,12.5339 3.6378,24.3732l-0.297638 31.7811c0,9.02717 0.429922,15.7075 1.32284,20.0067 0.858662,4.26615 2.51221,8.89607 4.89331,13.7906l-26.9516 0c-0.694489,-1.8189 -1.5874,-4.49764 -2.6126,-8.03623 -0.429922,-1.62047 -0.760631,-2.67874 -0.959056,-3.20788 -4.663,4.53071 -9.62363,7.90394 -14.915,10.1858 -5.29134,2.24882 -10.9465,3.37323 -16.9654,3.37323 -10.5815,0 -18.9484,-2.87717 -25.0335,-8.59843 -6.11811,-5.75434 -9.16064,-13.0299 -9.16064,-21.8268 0,-5.78622 1.38898,-10.9784 4.16693,-15.5421 2.77795,-4.56378 6.68032,-8.03623 11.674,-10.4504 4.9937,-2.41418 12.235,-4.53071 21.6603,-6.34961 12.6992,-2.3811 21.5292,-4.62992 26.4236,-6.68032l0 -2.71181c0,-5.25827 -1.28976,-8.96221 -3.86929,-11.211 -2.57953,-2.21575 -7.44095,-3.34016 -14.6173,-3.34016 -4.86142,0 -8.6315,0.959056 -11.3433,2.87717 -2.71181,1.88504 -4.89449,5.2252 -6.58111,10.0205zm36.4111 22.0914c-3.47244,1.15748 -8.99528,2.54646 -16.5685,4.16693 -7.54016,1.62047 -12.4677,3.20788 -14.8158,4.72914 -3.53859,2.54646 -5.32441,5.72126 -5.32441,9.58938 0,3.83622 1.42205,7.11024 4.26615,9.8882 2.8441,2.77795 6.44882,4.16693 10.8473,4.16693 4.92756,0 9.59056,-1.62047 14.0551,-4.82835 3.30709,-2.44725 5.4567,-5.4567 6.48189,-9.02835 0.72756,-2.31378 1.05827,-6.74528 1.05827,-13.2602l0 -5.42363zm73.6323 49.4067l0 -142.037 27.2162 0 0 51.1595c8.40001,-9.55631 18.3213,-14.3516 29.8299,-14.3516 12.5339,0 22.8851,4.56378 31.1185,13.624 8.20158,9.06142 12.3024,22.0914 12.3024,39.0898 0,17.5606 -4.2,31.1185 -12.5669,40.6099 -8.36575,9.49135 -18.5185,14.2205 -30.4571,14.2205 -5.88662,0 -11.674,-1.45512 -17.3953,-4.39843 -5.72126,-2.94331 -10.6488,-7.2756 -14.7827,-13.0299l0 15.1134 -25.265 0zm27.0177 -53.6729c0,10.6488 1.68662,18.5197 5.02678,23.6445 4.72914,7.24253 10.9795,10.8473 18.8173,10.8473 5.98583,0 11.1118,-2.57953 15.3449,-7.70552 4.23307,-5.12599 6.34961,-13.2272 6.34961,-24.2729 0,-11.7402 -2.14961,-20.2394 -6.41575,-25.4315 -4.23307,-5.19213 -9.68977,-7.80473 -16.3701,-7.80473 -6.51497,0 -11.9386,2.54646 -16.2709,7.60631 -4.33229,5.09292 -6.48189,12.7654 -6.48189,23.1166zm206.244 -18.7843l-26.8524 4.82835c-0.892914,-5.35748 -2.94331,-9.39213 -6.15119,-12.1039 -3.20788,-2.71181 -7.34174,-4.06772 -12.4347,-4.06772 -6.8126,0 -12.2032,2.34803 -16.2378,7.01103 -4.03465,4.69607 -6.05197,12.5339 -6.05197,23.5134 0,12.2032 2.0504,20.8335 6.15119,25.8603 4.10079,5.02678 9.59056,7.54016 16.5024,7.54016 5.19213,0 9.39213,-1.45512 12.6992,-4.39843 3.30709,-2.94331 5.62205,-8.00316 6.97796,-15.1453l26.7532 4.53071c-2.77795,12.2681 -8.13426,21.561 -16.0051,27.8114 -7.87087,6.28347 -18.4205,9.39213 -31.6819,9.39213 -15.0473,0 -27.0508,-4.72914 -35.9799,-14.2205 -8.96221,-9.49135 -13.4268,-22.6524 -13.4268,-39.4524 0,-16.9654 4.49764,-30.1937 13.4599,-39.652 8.99528,-9.49016 21.1311,-14.2193 36.4429,-14.2193 12.5339,0 22.4882,2.71181 29.8961,8.10119 7.37481,5.39056 12.698,13.6252 15.939,24.6709zm160.773 72.4571l-27.2173 0 0 -102.617c-9.95434,9.32481 -21.6603,16.2036 -35.1532,20.6351l0 -24.7028c7.07717,-2.31496 14.8158,-6.71339 23.1484,-13.1953 8.33386,-6.51497 14.0551,-14.0882 17.1307,-22.7528l22.0914 0 0 142.632zm153.827 -25.2992l0 25.2992 -95.4402 0c1.05827,-9.55749 4.13386,-18.6189 9.32599,-27.1843 5.15906,-8.56418 15.378,-19.9075 30.5894,-34.0618 12.3024,-11.4095 19.8095,-19.1811 22.5874,-23.2488 3.73701,-5.62205 5.62205,-11.178 5.62205,-16.6665 0,-6.05197 -1.62047,-10.715 -4.89449,-13.989 -3.27402,-3.27402 -7.77166,-4.89449 -13.526,-4.89449 -5.68819,0 -10.1858,1.71969 -13.5591,5.12599 -3.34016,3.43937 -5.29134,9.12757 -5.82048,17.0634l-27.1169 -2.71063c1.62047,-14.9811 6.68032,-25.7292 15.2126,-32.2772 8.53229,-6.51497 19.1799,-9.78898 31.9784,-9.78898 14.0221,0 25.0347,3.80315 33.0378,11.3433 8.00316,7.57323 12.0036,16.9654 12.0036,28.2095 0,6.3815 -1.15748,12.4665 -3.43819,18.254 -2.28189,5.78741 -5.91969,11.8394 -10.8803,18.1559 -3.30709,4.2 -9.25985,10.252 -17.8252,18.1228 -8.59843,7.87087 -14.0551,13.1291 -16.337,15.7075 -2.28189,2.57953 -4.16693,5.09292 -5.58898,7.54016l54.0697 0zm38.6445 -12.4004l26.3232 -3.17481c0.859843,6.71339 3.10866,11.8382 6.8126,15.3768 3.67087,3.57166 8.13544,5.35748 13.3606,5.35748 5.62205,0 10.3512,-2.14961 14.1874,-6.41575 3.83622,-4.26615 5.75434,-9.98623 5.75434,-17.2288 0,-6.84567 -1.8189,-12.2693 -5.52284,-16.2709 -3.67087,-4.03465 -8.16851,-6.0189 -13.4599,-6.0189 -3.47244,0 -7.63938,0.661418 -12.5008,2.01732l3.00945 -22.1575c7.37481,0.165354 12.9969,-1.42205 16.8662,-4.79528 3.86929,-3.4063 5.82048,-7.90394 5.82048,-13.5248 0,-4.79528 -1.42205,-8.59843 -4.26615,-11.4425 -2.8441,-2.8441 -6.64725,-4.26615 -11.3433,-4.26615 -4.663,0 -8.6315,1.62047 -11.9055,4.86142 -3.30709,3.20788 -5.32441,7.93701 -6.0189,14.1213l-25.0996 -4.23307c1.75276,-8.59843 4.36536,-15.4772 7.90394,-20.6032 3.50551,-5.12599 8.43308,-9.16064 14.7165,-12.1039 6.31536,-2.94331 13.3595,-4.4315 21.1642,-4.4315 13.3937,0 24.1087,4.26615 32.178,12.7984 6.64725,6.97796 9.98741,14.8488 9.98741,23.6457 0,12.4665 -6.8126,22.4209 -20.4378,29.8288 8.13544,1.75276 14.6173,5.65512 19.5118,11.7402 4.86024,6.05197 7.30749,13.3937 7.30749,21.9921 0,12.4665 -4.5626,23.0823 -13.6571,31.8792 -9.0945,8.76379 -20.4378,13.1622 -33.9969,13.1622 -12.8646,0 -23.5122,-3.70394 -31.9784,-11.0787 -8.46615,-7.40788 -13.3606,-17.0646 -14.7165,-29.0351zm185.873 37.6996l0 -28.5733 -58.1374 0 0 -23.8429 61.643 -90.2162 22.852 0 0 90.117 17.6256 0 0 23.9421 -17.6256 0 0 28.5733 -26.3575 0zm0 -52.5154l0 -48.5469 -32.6398 48.5469 32.6398 0zm78.5599 15.9732l27.1169 -2.77795c0.760631,6.11811 3.07559,10.9784 6.87875,14.55 3.80315,3.60473 8.20158,5.39056 13.1622,5.39056 5.68819,0 10.5165,-2.31496 14.452,-6.91182 3.93544,-4.62992 5.91969,-11.6067 5.91969,-20.8996 0,-8.69764 -1.95118,-15.2457 -5.88662,-19.611 -3.90237,-4.36536 -8.99528,-6.54804 -15.2457,-6.54804 -7.80473,0 -14.8158,3.47244 -21.0331,10.3843l-22.0902 -3.20788 13.9559 -73.9123 71.9941 0 0 25.4646 -51.3591 0 -4.26615 24.1406c6.08504,-3.04252 12.2693,-4.56378 18.6189,-4.56378 12.0709,0 22.3229,4.39843 30.6898,13.1622 8.39883,8.79686 12.5988,20.2063 12.5988,34.2284 0,11.674 -3.37323,22.1232 -10.1516,31.2839 -9.25985,12.5339 -22.0583,18.7843 -38.4614,18.7843 -13.1291,0 -23.8099,-3.50551 -32.0776,-10.5496 -8.26772,-7.0441 -13.2284,-16.5024 -14.8158,-28.4067zm223.374 -70.7044l-26.3563 2.91024c-0.628347,-5.42363 -2.31496,-9.4252 -5.02678,-12.0378 -2.71181,-2.57953 -6.2504,-3.86929 -10.5827,-3.86929 -5.72126,0 -10.5827,2.57953 -14.5843,7.77166 -3.96851,5.15906 -6.44882,15.9059 -7.50709,32.2429 6.8126,-8.00316 15.2126,-12.0047 25.2992,-12.0047 11.3764,0 21.0992,4.33229 29.2016,12.9969 8.10119,8.6315 12.1689,19.8095 12.1689,33.5008 0,14.55 -4.26496,26.191 -12.7973,34.9878 -8.49922,8.76379 -19.4788,13.1622 -32.8394,13.1622 -14.3197,0 -26.1248,-5.55591 -35.3516,-16.7008 -9.22678,-11.1449 -13.8567,-29.3988 -13.8567,-54.7973 0,-26.0268 4.79528,-44.7768 14.4189,-56.2855 9.62363,-11.5087 22.1232,-17.263 37.5012,-17.263 10.7811,0 19.7103,3.04252 26.7874,9.06142 7.07717,6.05197 11.5748,14.8158 13.5248,26.3244zm-61.7091 59.3941c0,8.82993 2.01732,15.6744 6.08504,20.4697 4.06772,4.82835 8.73072,7.24253 13.9559,7.24253 5.05985,0 9.22678,-1.98425 12.6,-5.91969 3.37323,-3.93544 5.02678,-10.4161 5.02678,-19.3784 0,-9.22678 -1.78583,-16.0063 -5.42363,-20.3055 -3.60473,-4.29922 -8.13544,-6.44882 -13.5591,-6.44882 -5.2252,0 -9.6567,2.0504 -13.2614,6.15119 -3.6378,4.10079 -5.42363,10.1858 -5.42363,18.189z"/>
 </g>
 <rect class="fil1" width="2048" height="2048"/>
</svg>
